<svg width="380" height="380" viewBox="0 0 380 380" fill="none" xmlns="http://www.w3.org/2000/svg">
<path d="M36.0847 158.939L74.5635 158.756L113.042 158.688L190 158.559L266.957 158.688L305.436 158.756L343.915 158.939L305.436 159.129L266.957 159.197L190 159.319L113.042 159.19L74.5635 159.129L36.0847 158.939Z" fill="#EBEBEB"/>
<path d="M36.0847 185.227L74.5635 185.037L113.042 184.977L190 184.847L266.957 184.969L305.436 185.037L343.915 185.227L305.436 185.41L266.957 185.478L190 185.607L113.042 185.478L74.5635 185.41L36.0847 185.227Z" fill="#EBEBEB"/>
<path d="M36.0847 132.681L74.5635 132.498L113.042 132.43L190 132.301L266.957 132.43L305.436 132.498L343.915 132.681L305.436 132.863L266.957 132.932L190 133.061L113.042 132.932L74.5635 132.863L36.0847 132.681Z" fill="#EBEBEB"/>
<path d="M36.0847 211.508L74.5635 211.326L113.042 211.257L190 211.128L266.957 211.257L305.436 211.326L343.915 211.508L305.436 211.698L266.957 211.759L190 211.888L113.042 211.759L74.5635 211.698L36.0847 211.508Z" fill="#EBEBEB"/>
<path d="M36.0847 237.796L74.5635 237.607L113.042 237.538L190 237.417L266.957 237.538L305.436 237.607L343.915 237.796L305.436 237.979L266.957 238.047L190 238.169L113.042 238.047L74.5635 237.979L36.0847 237.796Z" fill="#EBEBEB"/>
<path d="M36.0847 264.077L74.5635 263.895L113.042 263.826L190 263.697L266.957 263.826L305.436 263.895L343.915 264.077L305.436 264.26L266.957 264.328L190 264.457L113.042 264.328L74.5635 264.26L36.0847 264.077Z" fill="#EBEBEB"/>
<path d="M216.281 106.058L216.471 128.911L216.539 151.772L216.661 197.478L216.539 243.185L216.471 266.046L216.281 288.899L216.098 266.046L216.03 243.185L215.901 197.478L216.03 151.772L216.098 128.911L216.281 106.058Z" fill="#EBEBEB"/>
<path d="M190 106.058L190.182 128.911L190.251 151.772L190.38 197.478L190.251 243.185L190.19 266.046L190 288.899L189.81 266.046L189.749 243.185L189.62 197.478L189.749 151.772L189.818 128.911L190 106.058Z" fill="#EBEBEB"/>
<path d="M163.719 106.058L163.902 128.911L163.97 151.772L164.092 197.478L163.97 243.185L163.902 266.046L163.719 288.899L163.529 266.046L163.461 243.185L163.339 197.478L163.461 151.772L163.529 128.911L163.719 106.058Z" fill="#EBEBEB"/>
<path d="M137.431 106.058L137.613 128.911L137.682 151.772L137.811 197.478L137.682 243.185L137.621 266.046L137.431 288.899L137.248 266.046L137.18 243.185L137.051 197.478L137.18 151.772L137.248 128.911L137.431 106.058Z" fill="#EBEBEB"/>
<path d="M295.138 106.058L295.321 128.911L295.389 151.772L295.518 197.478L295.389 243.185L295.321 266.046L295.138 288.899L294.948 266.046L294.88 243.185L294.758 197.478L294.888 151.772L294.948 128.911L295.138 106.058Z" fill="#EBEBEB"/>
<path d="M268.85 106.058L269.04 128.911L269.101 151.772L269.23 197.478L269.101 243.185L269.04 266.046L268.85 288.899L268.668 266.046L268.599 243.185L268.47 197.478L268.599 151.772L268.668 128.911L268.85 106.058Z" fill="#EBEBEB"/>
<path d="M242.569 106.058L242.752 128.911L242.82 151.772L242.949 197.478L242.82 243.185L242.752 266.046L242.569 288.899L242.379 266.046L242.318 243.185L242.189 197.478L242.318 151.772L242.387 128.911L242.569 106.058Z" fill="#EBEBEB"/>
<path d="M321.419 106.058L321.602 128.911L321.67 151.772L321.799 197.478L321.67 243.185L321.609 266.046L321.419 288.899L321.237 266.046L321.168 243.185L321.039 197.478L321.168 151.772L321.237 128.911L321.419 106.058Z" fill="#EBEBEB"/>
<path d="M295.138 106.058L295.321 128.911L295.389 151.772L295.518 197.478L295.389 243.185L295.321 266.046L295.138 288.899L294.948 266.046L294.88 243.185L294.758 197.478L294.888 151.772L294.948 128.911L295.138 106.058Z" fill="#EBEBEB"/>
<path d="M111.15 106.058L111.332 128.911L111.401 151.772L111.53 197.478L111.401 243.185L111.332 266.046L111.15 288.899L110.96 266.046L110.892 243.185L110.77 197.478L110.899 151.772L110.96 128.911L111.15 106.058Z" fill="#EBEBEB"/>
<path d="M84.8616 106.058L85.0516 128.911L85.1124 151.772L85.2416 197.478L85.12 243.185L85.0516 266.046L84.8616 288.899L84.6792 266.046L84.6108 243.185L84.4816 197.478L84.6108 151.772L84.6792 128.911L84.8616 106.058Z" fill="#EBEBEB"/>
<path d="M58.5808 106.058L58.7632 128.911L58.8316 151.772L58.9608 197.478L58.8316 243.185L58.7632 266.046L58.5808 288.899L58.3908 266.046L58.33 243.185L58.2008 197.478L58.33 151.772L58.3908 128.911L58.5808 106.058Z" fill="#EBEBEB"/>
<path d="M157.122 43.8596H35.5223V53.2152H157.122V43.8596Z" fill="#EBEBEB"/>
<path d="M142.28 139.787C141.187 139.732 140.118 139.451 139.139 138.961C138.161 138.472 137.294 137.785 136.595 136.944C133.319 133.372 131.579 127.14 132.035 120.673C132.354 116.303 134.391 110.686 136.359 105.26C138.328 99.8335 140.243 94.5591 140.288 90.9567L140.828 48.3967H143.435V49.3923H141.824L141.299 90.9567C141.246 94.7567 139.338 100.001 137.309 105.587C135.364 110.952 133.357 116.493 133.046 120.734C132.59 126.935 134.231 132.894 137.332 136.253C137.939 136.995 138.693 137.603 139.548 138.037C140.402 138.471 141.338 138.723 142.295 138.776L142.28 139.787Z" fill="#EBEBEB"/>
<path d="M144.598 139.399C143.866 139.662 143.094 139.793 142.318 139.787V138.791C143.275 138.761 144.215 138.532 145.08 138.12C145.944 137.708 146.714 137.121 147.341 136.397C150.526 133.099 152.319 127.201 152.023 120.992C151.825 116.744 149.955 111.15 148.147 105.739C146.262 100.1 144.491 94.7798 144.537 91.0102L145.069 49.4534H143.458V48.4578H146.057L145.517 91.0178C145.472 94.6202 147.22 99.8642 149.074 105.412C150.928 110.96 152.798 116.554 153.003 120.939C153.315 127.407 151.415 133.593 148.048 137.081C147.092 138.109 145.911 138.903 144.598 139.399Z" fill="#EBEBEB"/>
<path d="M142.279 139.787C141.743 139.757 141.219 139.616 140.74 139.373C140.261 139.129 139.838 138.789 139.498 138.373C136.716 135.409 135.113 128.318 135.515 120.734C135.743 116.379 137.089 110.77 138.396 105.344C139.703 99.9171 140.987 94.5971 141.033 90.9643L141.573 48.4043H143.45V49.3999H142.576L142.044 90.9643C141.991 94.7035 140.729 99.9779 139.384 105.556C138.084 110.945 136.747 116.508 136.526 120.756C136.146 127.984 137.674 134.938 140.235 137.674C140.489 137.987 140.804 138.246 141.16 138.434C141.517 138.622 141.908 138.736 142.31 138.768L142.279 139.787Z" fill="#EBEBEB"/>
<path d="M143.382 139.604C143.029 139.733 142.655 139.795 142.28 139.787H141.786L142.948 48.4272H145.32L144.78 90.9873C144.734 94.6125 145.852 99.8641 147.06 105.427C148.268 110.99 149.431 116.531 149.545 120.886C149.75 128.486 147.972 135.531 145.114 138.426C144.636 138.948 144.043 139.352 143.382 139.604ZM142.796 138.738C143.41 138.565 143.963 138.222 144.392 137.75C147.022 135.082 148.732 128.166 148.534 120.939C148.42 116.668 147.227 111.059 146.064 105.655C144.871 100.046 143.731 94.7416 143.784 91.0024L144.316 49.438H143.936L142.796 138.738Z" fill="#EBEBEB"/>
<path d="M139.194 46.4361L138.768 80.0357L147.318 80.1421L147.751 46.3525L139.194 46.4361Z" fill="#A6A6A6"/>
<path d="M98.1312 70.4141H94.5212V116.044H98.1312V70.4141Z" fill="#EBEBEB"/>
<path d="M106.096 114.053H86.5487L85.5531 141.36H107.099L106.096 114.053ZM92.2259 138.122H90.1967V117.952H92.2259V138.122ZM97.3331 138.122H95.3191V117.952H97.3331V138.122ZM102.44 138.122H100.419V117.952H102.44V138.122Z" fill="#EBEBEB"/>
<path d="M92.6592 46.4361L92.226 80.0357L100.784 80.1421L101.217 46.3525L92.6592 46.4361Z" fill="#A6A6A6"/>
<path d="M51.2164 91.8688V70.0112H45.5316V136.732H72.96V91.8916L51.2164 91.8688ZM67.4424 99.7272C67.1189 99.7272 66.8026 99.6312 66.5338 99.4513C66.2649 99.2714 66.0555 99.0158 65.932 98.7168C65.8086 98.4177 65.7767 98.0888 65.8403 97.7716C65.904 97.4545 66.0604 97.1633 66.2897 96.9351C66.5189 96.7069 66.8108 96.5519 67.1283 96.4897C67.4457 96.4275 67.7745 96.461 68.0729 96.5858C68.3714 96.7106 68.626 96.9213 68.8047 97.191C68.9833 97.4607 69.0779 97.7773 69.0764 98.1008C69.0764 98.3151 69.034 98.5272 68.9518 98.725C68.8696 98.9228 68.7491 99.1024 68.5973 99.2536C68.4455 99.4047 68.2653 99.5243 68.0671 99.6056C67.8689 99.6869 67.6566 99.7282 67.4424 99.7272Z" fill="#EBEBEB"/>
<path d="M44.7336 46.4361L44.3004 80.0357L52.858 80.1421L53.2912 46.3525L44.7336 46.4361Z" fill="#A6A6A6"/>
<path d="M224.466 136.587H348.095L352.077 43.8596H220.483L224.466 136.587Z" fill="#EBEBEB"/>
<path d="M283.655 128.068H233.654L230.394 52.8276H283.655V128.068ZM234.384 127.308H282.895V53.5876H231.215L234.384 127.308Z" fill="#DBDBDB"/>
<path d="M279.14 103.162H273.949V76H279.14V103.162ZM274.709 102.402H278.38V76.76H274.709V102.402Z" fill="#DBDBDB"/>
<path d="M338.907 128.068H288.906V52.8276H342.167L338.907 128.068ZM289.666 127.308H338.2L341.392 53.5876H289.712L289.666 127.308Z" fill="#DBDBDB"/>
<path d="M298.612 103.162H293.421V76H298.612V103.162ZM294.181 102.402H297.852V76.76H294.181V102.402Z" fill="#DBDBDB"/>
<path d="M190 336.862C273.813 336.862 341.757 332.354 341.757 326.792C341.757 321.231 273.813 316.722 190 316.722C106.187 316.722 38.2433 321.231 38.2433 326.792C38.2433 332.354 106.187 336.862 190 336.862Z" fill="#EBEBEB"/>
<path d="M33.5996 291.034L72.7016 290.852L111.796 290.783L190 290.654L268.196 290.783L307.298 290.852L346.4 291.034L307.298 291.224L268.196 291.285L190 291.414L111.796 291.285L72.7016 291.217L33.5996 291.034Z" fill="#263238"/>
<path d="M163.499 160.269C158.939 158.141 145.738 158.84 140.167 164.357C134.596 169.875 132.628 180.371 134.543 181.838C136.458 183.304 145.814 184.574 152.889 182.491C159.965 180.409 165.756 161.325 163.499 160.269Z" fill="#263238"/>
<path d="M163.507 160.307C163.674 160.307 163.75 160.041 163.567 159.995C159.372 158.954 154.531 159.379 150.252 159.645C146.794 159.866 143.215 160.238 140.106 161.865C138.613 162.624 137.303 163.698 136.265 165.013C135.227 166.328 134.487 167.851 134.094 169.48C133.137 173.173 132.666 177.794 133.768 181.495C133.768 181.602 133.988 181.617 133.98 181.495C133.593 174.032 133.798 165.064 141.847 161.819C148.679 159.068 156.378 160.276 163.507 160.307Z" fill="#263238"/>
<path d="M135.645 180.181C131.305 179.786 118.568 185.387 114.95 193.01C111.332 200.632 115.224 213.925 117.101 215.24C118.978 216.554 130.021 210.93 134.292 205.952C137.157 202.631 136.526 197.874 136.572 193.291C136.648 186.534 136.321 180.242 135.645 180.181Z" fill="#263238"/>
<path d="M137.043 205.504C140.083 197.607 137.271 188.487 136.116 180.485C136.116 180.401 135.964 180.409 135.964 180.485C135.964 187.91 138.799 195.214 137.279 202.646C136.374 207.062 133.889 211.006 129.679 212.929C126.023 214.571 121.843 214.768 117.914 215.255C117.656 215.255 117.739 215.673 117.99 215.65C125.765 214.898 133.882 213.659 137.043 205.504Z" fill="#263238"/>
<path d="M134.566 180.736C134.801 180.675 134.733 180.31 134.497 180.363C127.87 181.883 119.73 184.422 115.17 189.787C110.238 195.601 112.199 203.262 113.977 209.889C113.977 209.973 114.129 209.95 114.106 209.889C112.396 203.178 110.823 194.986 116.196 189.445C120.84 184.68 128.296 182.256 134.566 180.736Z" fill="#263238"/>
<path d="M117.625 215.133C119.905 217.413 122.474 223.387 121.661 229.201C120.27 239.157 124.42 238.412 133.965 244.165C142.029 249.021 140.805 259.365 134.657 262.747C134.657 262.747 139.217 257.571 134.284 252.776C128.356 247.038 109.964 249.394 105.047 236.945C98.7012 220.833 117.625 215.133 117.625 215.133Z" fill="#263238"/>
<path d="M119.974 220.666C119.898 220.506 120.179 220.369 120.262 220.537C121.069 222.097 121.584 223.792 121.782 225.537C122.041 227.817 121.402 229.999 121.501 232.271C121.76 238.047 128.083 239.833 132.521 241.573C138.472 243.914 142.211 249.173 140.577 255.702C140.572 255.722 140.559 255.739 140.542 255.75C140.524 255.761 140.502 255.764 140.482 255.759C140.462 255.754 140.445 255.741 140.434 255.723C140.423 255.705 140.42 255.684 140.425 255.664C140.911 253.645 140.834 251.532 140.203 249.555C139.572 247.577 138.411 245.81 136.846 244.446C133.76 241.824 129.496 241.361 126.076 239.316C123.743 237.91 121.562 236.048 121.159 233.236C121.072 231.669 121.148 230.098 121.387 228.547C121.593 225.842 121.107 223.13 119.974 220.666Z" fill="#263238"/>
<path d="M115.664 215.779C115.74 215.779 115.794 215.863 115.725 215.893C111.211 218.219 106.484 220.499 103.93 225.165C101.186 230.189 102.266 236.421 105.45 240.981C109.03 246.08 114.631 245.928 120.217 246.551C124.26 247.007 128.288 247.767 131.617 250.245C131.716 250.321 131.617 250.488 131.488 250.427C125.902 247.144 119.822 247.205 113.605 246.308C108.528 245.548 105.245 242.706 103.314 237.948C99.0737 227.551 106.24 219.412 115.664 215.779Z" fill="#263238"/>
<path d="M160.778 155.04C159.82 153.041 156.735 154.576 157.7 156.56C158.665 158.543 161.743 157.031 160.778 155.04Z" fill="#AEDC81"/>
<path d="M161.454 158.163C160.489 156.172 157.404 157.707 158.369 159.683C159.334 161.659 162.42 160.17 161.454 158.163Z" fill="#AEDC81"/>
<path d="M162.64 161.165C161.675 159.167 158.589 160.702 159.554 162.685C160.52 164.669 163.636 163.172 162.64 161.165Z" fill="#AEDC81"/>
<path d="M164.228 163.902C163.263 161.903 160.178 163.438 161.143 165.422C162.108 167.405 165.186 165.908 164.228 163.902Z" fill="#AEDC81"/>
<path d="M166.273 166.387C165.308 164.388 162.23 165.923 163.187 167.907C164.145 169.89 167.238 168.386 166.273 166.387Z" fill="#AEDC81"/>
<path d="M168.644 168.386C167.679 166.387 164.593 167.922 165.558 169.906C166.524 171.889 169.609 170.384 168.644 168.386Z" fill="#AEDC81"/>
<path d="M176.692 195.7C190.137 211.66 201.316 232.035 207.267 236.953C210.383 239.529 255.428 243.238 260.543 244.218C268.341 245.738 256.743 282.841 251.469 281.397C248.049 280.463 197.106 276.435 187.522 265.719C180.15 257.465 168.37 221.806 165.194 206.112C161.667 188.677 171.327 189.331 176.692 195.7Z" fill="#C95F50"/>
<path d="M248.003 242.584C263.507 239.407 280.6 238.169 295.663 244.978C297.356 245.688 298.759 246.95 299.645 248.558C306.485 251.491 307.116 255.588 307.116 255.588C312.618 260.254 312.717 264.533 312.717 264.533C312.717 264.533 320.667 268.067 319.329 273.227C317.847 279.019 306.972 272.923 298.946 273.227C280.546 273.942 254.592 280.067 249.31 280.827L248.003 242.584Z" fill="#C95F50"/>
<path d="M279.14 260.429C284.559 260.33 289.879 260.087 295.283 260.725C301.211 261.417 306.804 263.081 312.535 264.632C312.57 264.642 312.609 264.637 312.641 264.62C312.674 264.603 312.698 264.573 312.71 264.538C312.722 264.503 312.72 264.465 312.704 264.432C312.688 264.398 312.66 264.372 312.626 264.358C302.7 259.912 289.826 258.506 279.133 260.186C278.874 260.224 278.867 260.437 279.14 260.429Z" fill="#263238"/>
<path d="M277.096 249.386C282.378 249.584 291.65 249.987 307.055 255.747C307.101 255.747 307.154 255.687 307.101 255.664C297.593 250.587 287.782 248.634 277.111 249.135C276.777 249.151 276.746 249.379 277.096 249.386Z" fill="#263238"/>
<path d="M276.116 243.436C285.076 244.105 290.639 245.663 299.6 248.589C299.653 248.589 299.698 248.52 299.638 248.497C289.803 244.105 285.737 243.626 276.078 243.124C275.758 243.109 275.766 243.405 276.116 243.436Z" fill="#263238"/>
<path d="M274.527 272.718C272.247 273.873 272.81 275.089 277.301 276.009C281.793 276.929 300.344 276.769 299.858 283.244C299.372 289.719 273.182 289.583 265.825 287.477C258.468 285.372 247.296 279.383 247.296 279.383C252.396 278.388 264.541 274.793 274.527 272.718Z" fill="#C95F50"/>
<path d="M243.504 239.4L237.333 282.902C237.333 282.902 191.064 275.302 183.456 266.676C175.849 258.05 167.96 223.569 164.16 206.218C160.36 188.867 169.982 183.35 180.728 197.729C191.474 212.108 203.756 234.049 206.568 235.326C209.38 236.603 243.504 239.4 243.504 239.4Z" fill="#EBEBEB"/>
<path d="M248.923 238.936C248.816 238.693 235.676 236.497 235.676 236.497C235.676 236.497 223.972 257.48 224.002 259.988C224.033 262.496 223.866 281.55 224.063 281.785C224.261 282.021 240.061 286.056 240.38 285.585C240.7 285.114 241.634 264.609 241.68 263.036C241.726 261.463 248.923 238.936 248.923 238.936Z" fill="#AEDC81"/>
<path d="M225.18 280.607C210.915 277.719 188.541 272.407 183.456 266.646C175.856 258.043 167.968 223.569 164.175 206.218C162.245 197.372 163.795 191.603 167.215 189.985C175.302 202.342 208.362 252.897 225.18 280.607Z" fill="#C7C7C7"/>
<path d="M183.16 291.034L181.678 263.834C181.678 263.834 196.019 249.994 193.967 236.474C192.934 229.634 182.195 200.579 174.078 190.114C166.478 180.302 150.282 183.722 143.465 187.697C117.23 202.996 88.5324 240.487 71.3336 291.057L183.16 291.034Z" fill="#EBEBEB"/>
<path d="M148.914 187.963C149.09 189.882 149.541 191.766 150.252 193.557C150.94 195.347 151.83 197.052 152.904 198.641C155.069 201.79 157.798 204.511 160.953 206.667C164.119 208.8 167.547 210.516 171.152 211.774L172.512 212.238L173.189 212.466H173.227C173.227 212.466 173.227 212.466 173.44 212.564C173.526 212.626 173.601 212.704 173.66 212.792C173.709 212.859 173.752 212.931 173.789 213.005L173.979 213.355C174.428 214.259 174.8 215.148 175.165 216.06C175.925 217.869 176.548 219.693 177.164 221.54C178.397 225.234 179.412 228.997 180.204 232.811C181.016 236.636 181.469 240.529 181.556 244.439C181.692 248.41 181.084 252.372 179.763 256.12C179.065 258.009 178.052 259.767 176.768 261.318C175.469 262.88 173.876 264.171 172.079 265.118L172.429 264.617C172.094 266.828 171.76 269.04 171.388 271.244L170.301 277.864C169.951 280.068 169.541 282.272 169.168 284.476C168.796 286.68 168.408 288.876 167.96 291.072C168.165 288.846 168.416 286.626 168.659 284.4C168.902 282.173 169.146 279.954 169.419 277.734L170.232 271.077C170.491 268.858 170.787 266.646 171.099 264.434L171.144 264.1L171.448 263.933C173.08 263.067 174.526 261.89 175.704 260.467C176.876 259.024 177.798 257.396 178.433 255.649C179.65 252.068 180.191 248.293 180.029 244.515C179.854 236.915 178.167 229.315 175.841 222.026C175.259 220.197 174.618 218.391 173.918 216.608C173.569 215.718 173.196 214.829 172.794 214.001L172.642 213.704L172.581 213.606C172.581 213.606 172.535 213.606 172.687 213.704C172.839 213.803 172.824 213.758 172.816 213.765H172.771L172.079 213.522L170.704 213.036C167.023 211.653 163.545 209.785 160.36 207.48C157.169 205.192 154.457 202.3 152.38 198.968C151.359 197.296 150.535 195.51 149.925 193.648C149.297 191.816 148.956 189.899 148.914 187.963Z" fill="#263238"/>
<path d="M148.413 213.613C146.756 220.103 145.016 226.571 143.268 233.031L137.948 252.396L132.438 271.715L129.626 281.352L126.73 290.973L129.261 281.253L131.875 271.555L137.195 252.191L142.705 232.879C144.575 226.48 146.452 220.02 148.413 213.613Z" fill="#263238"/>
<path d="M153.034 224.2C153.034 224.663 152.896 225.115 152.639 225.5C152.382 225.885 152.016 226.185 151.589 226.363C151.161 226.54 150.69 226.586 150.236 226.496C149.782 226.405 149.365 226.183 149.038 225.855C148.71 225.528 148.487 225.111 148.397 224.657C148.307 224.203 148.353 223.732 148.53 223.304C148.707 222.876 149.007 222.511 149.392 222.254C149.777 221.996 150.23 221.859 150.693 221.859C151.314 221.859 151.909 222.106 152.348 222.545C152.787 222.984 153.034 223.579 153.034 224.2Z" fill="#263238"/>
<path d="M175.393 225.401C175.393 225.864 175.256 226.316 174.998 226.701C174.741 227.086 174.376 227.386 173.948 227.563C173.52 227.74 173.049 227.787 172.595 227.696C172.141 227.606 171.724 227.383 171.397 227.056C171.07 226.728 170.847 226.311 170.756 225.857C170.666 225.403 170.712 224.933 170.889 224.505C171.067 224.077 171.367 223.712 171.752 223.454C172.137 223.197 172.589 223.06 173.052 223.06C173.673 223.06 174.268 223.306 174.707 223.745C175.146 224.184 175.393 224.78 175.393 225.401Z" fill="#263238"/>
<path d="M146.072 244.705C147.365 244.705 148.413 243.657 148.413 242.364C148.413 241.071 147.365 240.023 146.072 240.023C144.779 240.023 143.731 241.071 143.731 242.364C143.731 243.657 144.779 244.705 146.072 244.705Z" fill="#263238"/>
<path d="M143.42 260.878C143.42 261.341 143.282 261.793 143.025 262.178C142.768 262.563 142.402 262.863 141.975 263.04C141.547 263.217 141.076 263.264 140.622 263.173C140.168 263.083 139.751 262.86 139.424 262.533C139.096 262.205 138.873 261.788 138.783 261.334C138.693 260.88 138.739 260.41 138.916 259.982C139.093 259.554 139.393 259.189 139.778 258.931C140.163 258.674 140.616 258.537 141.079 258.537C141.7 258.537 142.295 258.783 142.734 259.222C143.173 259.661 143.42 260.257 143.42 260.878Z" fill="#263238"/>
<path d="M135.941 284.536C137.234 284.536 138.282 283.488 138.282 282.196C138.282 280.903 137.234 279.855 135.941 279.855C134.649 279.855 133.6 280.903 133.6 282.196C133.6 283.488 134.649 284.536 135.941 284.536Z" fill="#263238"/>
<path d="M171.669 245.944C172.962 245.944 174.01 244.896 174.01 243.603C174.01 242.31 172.962 241.262 171.669 241.262C170.376 241.262 169.328 242.31 169.328 243.603C169.328 244.896 170.376 245.944 171.669 245.944Z" fill="#263238"/>
<path d="M164.092 285.676C165.384 285.676 166.433 284.628 166.433 283.335C166.433 282.043 165.384 280.995 164.092 280.995C162.799 280.995 161.751 282.043 161.751 283.335C161.751 284.628 162.799 285.676 164.092 285.676Z" fill="#263238"/>
<path d="M166.987 265.559C168.28 265.559 169.328 264.511 169.328 263.218C169.328 261.926 168.28 260.878 166.987 260.878C165.694 260.878 164.646 261.926 164.646 263.218C164.646 264.511 165.694 265.559 166.987 265.559Z" fill="#263238"/>
<path d="M193.534 234.772C192.553 231.171 191.238 227.67 189.605 224.314C189.362 223.767 189.111 223.227 188.845 222.688C188.824 221.759 188.699 220.837 188.472 219.936C188.239 218.938 187.913 217.964 187.5 217.026C187.5 216.972 187.386 217.026 187.401 217.026C187.682 217.983 187.94 218.956 188.161 219.936C188.29 220.567 188.381 221.19 188.48 221.821C187.956 220.658 187.439 219.496 186.899 218.333C186.428 217.33 185.964 216.334 185.501 215.331C185.037 214.328 184.528 213.271 184.072 212.238C184.072 212.192 183.966 212.238 183.988 212.238C184.748 214.016 185.402 215.825 186.101 217.618C186.8 219.412 187.484 221.152 188.199 222.938C189.694 226.297 191.005 229.735 192.128 233.236C193.117 236.68 193.237 240.314 192.478 243.816C191.676 247.233 190.364 250.51 188.586 253.536C187.591 255.299 186.436 256.964 185.318 258.666C184.201 260.368 182.97 261.972 181.914 263.69C181.909 263.703 181.909 263.718 181.914 263.732C181.918 263.746 181.927 263.758 181.939 263.767C181.951 263.775 181.965 263.78 181.98 263.78C181.994 263.779 182.008 263.774 182.02 263.766C183.32 262.451 184.46 260.999 185.645 259.593C186.805 258.185 187.886 256.713 188.883 255.185C190.927 252.188 192.467 248.876 193.443 245.381C194.35 241.907 194.382 238.261 193.534 234.772Z" fill="#263238"/>
<path d="M138.016 187.72C119.487 194.56 59.1584 226.997 56.3996 243.603C54.3476 255.945 65.9224 263.902 78.6828 262.892C89.7864 262.01 130.15 218.538 141.322 206.272C152 194.56 156.218 181.055 138.016 187.72Z" fill="#C95F50"/>
<path d="M138.016 187.72C119.487 194.56 59.1584 226.997 56.3996 243.603C54.3476 255.945 65.9224 263.902 78.6828 262.892C89.7864 262.01 130.15 218.538 141.322 206.272C152 194.56 156.218 181.055 138.016 187.72Z" fill="#EBEBEB"/>
<path d="M138.685 209.881C138.753 209.79 138.639 209.669 138.556 209.76C135.706 212.845 132.825 215.908 129.892 218.918C126.958 221.927 124.07 224.998 121.121 228C115.254 233.989 109.215 239.798 103.003 245.427C101.262 247.007 99.4992 248.55 97.7436 250.108C95.988 251.666 94.1336 253.194 92.4236 254.813C92.3704 254.858 92.4236 254.942 92.4996 254.904C94.2248 253.703 95.874 252.365 97.5232 251.051C99.1724 249.736 100.768 248.429 102.364 247.076C105.556 244.37 108.718 241.634 111.796 238.799C114.874 235.965 117.975 233.001 120.977 230.006C123.416 227.582 125.818 225.112 128.136 222.566C128.562 222.254 128.987 221.95 129.405 221.631C130.249 220.977 131.085 220.309 131.928 219.64C133.57 218.34 135.113 216.919 136.724 215.581C136.823 215.498 136.678 215.323 136.58 215.399C134.93 216.699 133.228 217.922 131.609 219.252L129.588 220.939C132.726 217.36 135.759 213.636 138.685 209.881Z" fill="#263238"/>
<path d="M173.88 191.862C173.88 191.862 169.678 205.937 167.078 205.283C159.076 203.269 154.219 189.559 154.341 187.712C154.341 187.241 158.787 176.715 162.245 168.538C164.464 163.278 166.288 159 166.288 159L182.081 177.331L174.428 190.889L173.88 191.862Z" fill="#C95F50"/>
<path d="M182.081 177.331L174.428 190.889C170.945 188.226 168.062 184.859 165.967 181.008C163.872 177.157 162.612 172.908 162.268 168.538C164.487 163.278 166.311 159 166.311 159L168.34 161.204L182.081 177.331Z" fill="#263238"/>
<path d="M209.471 165.984C199.12 191.269 182.803 187.925 177.354 185.683C172.406 183.654 155.815 176.107 163.499 149.88C171.183 123.652 186.215 120.475 197.782 124.526C209.35 128.577 219.83 140.691 209.471 165.984Z" fill="#C95F50"/>
<path d="M206.386 160.223C205.858 159.864 205.35 159.476 204.866 159.06C204.288 158.719 203.837 158.199 203.581 157.578C203.54 157.367 203.569 157.148 203.666 156.956C203.762 156.763 203.919 156.608 204.113 156.514C204.523 156.386 204.959 156.369 205.377 156.466C205.795 156.562 206.18 156.767 206.492 157.062C207.214 157.562 207.726 158.312 207.928 159.167C207.96 159.36 207.935 159.559 207.858 159.739C207.781 159.919 207.654 160.073 207.492 160.184C207.33 160.295 207.14 160.357 206.945 160.364C206.749 160.371 206.555 160.322 206.386 160.223Z" fill="#263238"/>
<path d="M189.05 154.439C189.554 154.814 190.08 155.159 190.623 155.473C191.128 155.921 191.767 156.188 192.44 156.233C192.652 156.206 192.849 156.109 193.001 155.958C193.152 155.807 193.249 155.609 193.276 155.397C193.269 154.967 193.148 154.547 192.925 154.18C192.702 153.812 192.385 153.511 192.006 153.307C191.301 152.782 190.427 152.535 189.552 152.615C189.353 152.645 189.168 152.731 189.018 152.864C188.867 152.997 188.759 153.171 188.706 153.364C188.653 153.557 188.657 153.762 188.718 153.953C188.779 154.144 188.895 154.313 189.05 154.439Z" fill="#263238"/>
<path d="M190.707 160.421C190.707 160.352 190.54 160.421 190.509 160.512C189.749 162.222 188.655 164.061 186.869 163.909C186.816 163.909 186.778 163.993 186.869 164.015C188.822 164.616 190.289 162.161 190.707 160.421Z" fill="#263238"/>
<path d="M190 157.958C187.386 156.492 184.642 161.834 187.066 163.195C189.491 164.555 192.219 159.19 190 157.958Z" fill="#263238"/>
<path d="M188.83 157.708C188.206 157.768 187.477 158.065 186.884 157.837C186.291 157.609 185.995 156.75 185.85 155.998C185.85 155.914 185.759 155.937 185.721 155.998C185.182 157.008 185.037 158.278 186.056 158.977C187.074 159.676 188.168 159.098 188.959 158.217C189.103 158.08 189.08 157.677 188.83 157.708Z" fill="#263238"/>
<path d="M200.138 164.737C200.184 164.684 200.222 164.882 200.192 164.95C199.272 166.569 198.497 168.583 199.705 169.905C199.743 169.951 199.705 170.027 199.644 169.997C197.957 168.788 199.014 166.128 200.138 164.737Z" fill="#263238"/>
<path d="M202.51 163.788C205.268 164.973 202.692 170.4 200.138 169.298C197.585 168.196 200.199 162.792 202.51 163.788Z" fill="#263238"/>
<path d="M203.475 164.677C203.764 165.171 203.938 165.893 204.44 166.197C204.942 166.501 205.732 166.136 206.378 165.756C206.446 165.71 206.462 165.756 206.431 165.855C205.968 166.904 205.116 167.823 204.022 167.55C202.928 167.276 202.783 166.09 203.026 164.943C203.072 164.707 203.353 164.479 203.475 164.677Z" fill="#263238"/>
<path d="M183.677 173.28C183.844 173.88 183.935 174.618 184.49 175.005C185.1 175.332 185.769 175.531 186.458 175.59C186.475 175.59 186.49 175.597 186.501 175.608C186.513 175.62 186.519 175.635 186.519 175.651C186.519 175.667 186.513 175.683 186.501 175.694C186.49 175.706 186.475 175.712 186.458 175.712C186.047 175.899 185.593 175.97 185.144 175.917C184.696 175.865 184.27 175.692 183.912 175.416C183.631 175.143 183.437 174.793 183.356 174.41C183.275 174.027 183.31 173.628 183.456 173.265C183.51 173.158 183.654 173.196 183.677 173.28Z" fill="#263238"/>
<path d="M193.64 170.734C193.64 170.734 192.744 173.394 192.158 174.534C192.105 174.64 191.794 174.534 191.398 174.374C191.398 174.374 191.398 174.374 191.353 174.374C190.255 174.057 189.265 173.442 188.493 172.599C187.72 171.756 187.195 170.716 186.975 169.594C186.972 169.562 186.98 169.53 186.997 169.503C187.015 169.477 187.042 169.457 187.073 169.448C187.103 169.439 187.136 169.441 187.166 169.454C187.195 169.467 187.219 169.489 187.234 169.518C188.214 171.289 189.746 172.693 191.596 173.516C191.839 173.234 192.979 168.91 193.169 168.956C194.04 169.49 194.835 170.14 195.533 170.886C197.562 165.399 198.694 159.638 200.792 154.212C200.809 154.173 200.839 154.141 200.876 154.122C200.914 154.103 200.957 154.097 200.998 154.106C201.039 154.115 201.076 154.138 201.102 154.171C201.128 154.204 201.142 154.245 201.142 154.288C200.382 160.413 198.185 166.774 196.24 172.49C195.981 173.28 194.005 171.167 193.64 170.734Z" fill="#263238"/>
<path d="M191.064 173.576C190.034 174.178 188.867 174.505 187.674 174.526C187.026 174.515 186.396 174.303 185.873 173.918C184.733 173.067 185.174 171.889 185.812 170.985C186.158 170.507 186.559 170.07 187.006 169.685C187.908 171.383 189.33 172.746 191.064 173.576Z" fill="#263238"/>
<path d="M187.674 174.526C187.026 174.515 186.396 174.303 185.873 173.918C184.733 173.067 185.174 171.889 185.812 170.985C187.12 171.676 188.092 173.151 187.674 174.526Z" fill="#FF9CBD"/>
<path d="M205.352 134.102C205.352 134.102 204.508 138.305 201.902 140.372C196.582 144.613 190.593 139.886 187.241 140.957C184.095 141.968 182.765 146.581 179.824 147.691C175.75 149.211 172.642 146.33 171.266 148.033C169.89 149.735 165.634 155.2 162.815 154.774C159.995 154.348 168.636 108.368 199.895 125.248C199.895 125.248 205.147 125.605 210.262 132.339C215.908 139.779 213.134 153.695 213.134 153.695C213.134 153.695 213.058 153.444 212.435 151.954C211.561 149.842 211.584 148.291 210.915 146.862C209.821 144.582 208.59 144.666 207.404 142.416C205.572 138.996 205.352 134.102 205.352 134.102Z" fill="#263238"/>
<path d="M205.732 132.095C205.45 133.919 204.96 135.704 204.273 137.415C203.692 139.129 202.657 140.652 201.278 141.823C199.776 142.773 197.981 143.145 196.224 142.872C194.431 142.69 192.683 142.029 190.737 141.884C189.729 141.8 188.717 141.995 187.811 142.447C186.972 142.959 186.245 143.636 185.676 144.438C184.536 145.905 183.396 147.349 181.746 147.979C180.918 148.308 180.027 148.452 179.137 148.4C178.247 148.349 177.379 148.104 176.594 147.683C174.982 146.923 173.432 145.578 171.517 145.517C173.417 145.737 174.777 147.113 176.396 148.063C177.231 148.555 178.164 148.86 179.129 148.954C180.093 149.049 181.067 148.931 181.982 148.61C183.897 147.995 185.159 146.33 186.291 144.939C186.809 144.233 187.46 143.634 188.206 143.176C188.981 142.82 189.836 142.676 190.684 142.758C192.447 142.857 194.233 143.518 196.141 143.67C197.102 143.773 198.074 143.727 199.021 143.533C199.997 143.378 200.917 142.972 201.689 142.355C203.109 141.062 204.145 139.403 204.683 137.56C205.242 135.785 205.594 133.951 205.732 132.095Z" fill="#263238"/>
<path d="M205.633 133.851C205.198 135.531 204.994 137.262 205.025 138.996C205.003 140.8 205.516 142.569 206.5 144.081C207.032 144.78 207.63 145.426 208.286 146.011C208.851 146.557 209.253 147.249 209.448 148.01C209.515 148.877 209.67 149.736 209.912 150.571C210.221 151.394 210.715 152.135 211.356 152.737C210.868 152.051 210.517 151.277 210.322 150.457C210.175 149.622 210.106 148.774 210.117 147.926C209.976 146.997 209.545 146.135 208.886 145.464C208.278 144.891 207.721 144.265 207.222 143.594C206.327 142.207 205.804 140.613 205.702 138.966C205.564 137.264 205.541 135.556 205.633 133.851Z" fill="#263238"/>
<path d="M166.721 153.467C166.721 153.467 165.323 143.153 160.907 143.275C156.492 143.397 154.827 156.446 158.088 159.995C158.474 160.484 158.956 160.89 159.504 161.188C160.052 161.485 160.655 161.669 161.276 161.727C161.896 161.785 162.523 161.717 163.116 161.526C163.71 161.336 164.259 161.027 164.73 160.618L166.721 153.467Z" fill="#C95F50"/>
<path d="M160.52 147.03C160.459 146.992 160.398 147.075 160.444 147.128C162.686 149.728 162.83 153.125 162.473 156.385C162.169 154.865 161.318 153.74 159.395 154.022C159.296 154.022 159.304 154.189 159.395 154.212C159.97 154.308 160.501 154.578 160.917 154.986C161.333 155.393 161.613 155.919 161.721 156.492C161.885 157.463 161.944 158.449 161.895 159.433C161.895 159.752 162.427 159.851 162.481 159.509C162.481 159.509 162.481 159.456 162.481 159.433C164.419 155.884 164.213 149.386 160.52 147.03Z" fill="#263238"/>
<path d="M160.923 160.124C160.833 160.292 160.695 160.428 160.527 160.517C160.359 160.606 160.169 160.643 159.98 160.623C159.791 160.603 159.612 160.528 159.467 160.406C159.321 160.285 159.214 160.123 159.161 159.941C159.107 159.759 159.109 159.565 159.166 159.383C159.223 159.202 159.332 159.042 159.48 158.923C159.628 158.805 159.808 158.733 159.997 158.716C160.187 158.7 160.376 158.741 160.543 158.832C160.653 158.892 160.75 158.973 160.828 159.07C160.907 159.167 160.966 159.279 161.001 159.399C161.036 159.519 161.048 159.645 161.034 159.77C161.021 159.894 160.983 160.015 160.923 160.124Z" fill="white"/>
<path d="M159.372 157.388C159.294 157.528 159.164 157.63 159.01 157.674C158.856 157.719 158.692 157.7 158.551 157.624C158.448 157.566 158.364 157.479 158.31 157.373C158.257 157.268 158.235 157.149 158.249 157.031C158.263 156.913 158.311 156.802 158.387 156.712C158.464 156.622 158.566 156.556 158.68 156.523C158.793 156.491 158.914 156.492 159.027 156.528C159.14 156.564 159.24 156.633 159.314 156.725C159.388 156.818 159.433 156.93 159.443 157.048C159.454 157.166 159.429 157.284 159.372 157.388Z" fill="white"/>
<path d="M162.556 137.704C162.328 137.393 155.291 124.108 154.234 122.839C153.178 121.57 143.442 121.319 142.34 116.896C141.238 112.472 142.105 104.067 147.66 101.156C153.216 98.2451 158.946 97.6979 159.395 97.1963C159.843 96.6947 159.79 84.0787 167.8 81.1147C175.811 78.1507 184.52 90.1587 185.083 90.2347C185.645 90.3107 189.696 83.8051 195.198 84.2687C200.701 84.7323 204.615 94.0119 206.013 94.1487C207.412 94.2855 212.245 92.3247 217.223 97.4167C222.201 102.509 217.687 113.514 215.931 114.684C214.176 115.854 213.34 130.332 213.34 130.332L162.556 137.704Z" fill="#EBEBEB"/>
<path d="M168.264 132.825C167.777 132.26 167.391 131.615 167.124 130.918C166.797 130.226 166.463 129.542 166.106 128.866C165.379 127.514 164.548 126.22 163.62 124.997C162.906 124.017 162.032 122.93 160.808 122.596C160.372 122.506 159.922 122.505 159.485 122.591C159.048 122.677 158.632 122.849 158.262 123.097C158.06 123.339 157.872 123.593 157.7 123.857C157.639 123.926 157.768 124.024 157.814 123.941C157.994 123.591 158.298 123.321 158.665 123.181C158.965 123.08 159.277 123.016 159.592 122.991C160.264 122.964 160.921 123.186 161.439 123.614C162.393 124.485 163.189 125.514 163.795 126.654C164.51 127.764 165.229 128.873 165.954 129.983C166.6 130.994 167.124 132.308 168.135 133.023C168.219 133 168.34 132.909 168.264 132.825Z" fill="#C7C7C7"/>
<path d="M171.312 133C169.913 130.188 168.507 127.368 167.086 124.564C165.541 121.771 164.319 118.811 163.446 115.74C163.446 115.649 163.286 115.672 163.309 115.74C163.928 118.88 164.902 121.94 166.212 124.86C167.642 127.736 169.299 130.494 171.167 133.106C171.181 133.125 171.202 133.138 171.226 133.142C171.249 133.145 171.273 133.139 171.293 133.125C171.312 133.111 171.325 133.09 171.328 133.067C171.332 133.043 171.326 133.019 171.312 133Z" fill="#C7C7C7"/>
<path d="M179.421 129.2C178.615 126.631 177.544 124.131 176.502 121.646C175.594 119.454 174.401 117.392 172.953 115.512C172.9 115.444 172.794 115.512 172.847 115.604C174.192 117.61 174.884 119.958 175.788 122.185C176.768 124.617 177.749 127.08 178.957 129.413C178.991 129.464 179.043 129.501 179.102 129.517C179.161 129.534 179.224 129.529 179.28 129.504C179.335 129.478 179.38 129.433 179.406 129.378C179.432 129.322 179.437 129.259 179.421 129.2Z" fill="#C7C7C7"/>
<path d="M193.876 108.125C193.581 107.847 193.227 107.637 192.841 107.511C192.456 107.385 192.047 107.345 191.644 107.395C191.241 107.445 190.854 107.584 190.511 107.801C190.167 108.017 189.876 108.307 189.658 108.65C188.533 110.36 188.541 112.769 188.541 114.73C188.531 116.871 188.787 119.005 189.301 121.083C189.9 123.429 190.808 125.686 191.999 127.794C192.009 127.809 192.024 127.82 192.041 127.825C192.058 127.83 192.076 127.828 192.093 127.821C192.109 127.814 192.122 127.801 192.13 127.785C192.138 127.769 192.14 127.751 192.136 127.733C190.68 124.226 189.867 120.485 189.734 116.69C189.643 114.825 189.727 112.954 189.985 111.104C190.198 109.584 191.391 107.145 193.344 108.163C195.176 109.113 195.335 111.682 196.384 113.263C196.384 113.263 196.468 113.263 196.437 113.217C195.426 111.576 195.381 109.501 193.876 108.125Z" fill="#C7C7C7"/>
<path d="M212.268 109.774C209.93 111.9 208.371 114.746 207.837 117.861C207.508 119.581 207.355 121.331 207.381 123.082C207.311 124.892 207.42 126.705 207.708 128.493C207.713 128.508 207.723 128.522 207.736 128.531C207.749 128.54 207.764 128.546 207.78 128.546C207.796 128.546 207.812 128.54 207.825 128.531C207.838 128.522 207.848 128.508 207.853 128.493C208.058 126.806 207.853 125.073 208.058 123.386C208.204 121.68 208.481 119.988 208.886 118.324C209.264 116.864 209.749 115.434 210.338 114.046C210.933 112.637 211.674 111.295 212.549 110.04C212.671 109.866 212.443 109.622 212.268 109.774Z" fill="#C7C7C7"/>
<path d="M203.125 120.08C202.977 117.364 202.636 114.662 202.107 111.993C202.098 111.939 202.067 111.89 202.023 111.858C201.978 111.826 201.922 111.813 201.867 111.822C201.813 111.831 201.764 111.862 201.732 111.907C201.7 111.952 201.687 112.007 201.696 112.062C201.97 114.737 202.084 117.435 202.19 120.118C202.297 122.801 202.236 125.438 202.517 128.105C202.522 128.121 202.532 128.134 202.545 128.143C202.558 128.153 202.573 128.158 202.589 128.158C202.605 128.158 202.621 128.153 202.634 128.143C202.647 128.134 202.657 128.121 202.662 128.105C203.165 125.462 203.321 122.764 203.125 120.08Z" fill="#C7C7C7"/>
<path d="M163.902 144.233C164.464 142.447 184.293 127.923 212.853 137.864C213.705 138.16 215.468 126.228 214.085 125.005C212.701 123.781 174.253 115.125 159.539 134.376C158.544 135.683 163.902 144.233 163.902 144.233Z" fill="#AEDC81"/>
<path d="M156.788 181.549C156.788 179.74 147.668 186.587 147.546 187.803C147.425 189.019 152 208.415 167.504 210.885C169.541 211.204 175.157 199.675 175.408 197.63C175.659 195.586 173.888 191.862 173.888 191.862C173.888 191.862 169.032 201.742 167.496 201.833C165.961 201.924 156.56 192.629 156.788 181.549Z" fill="#AEDC81"/>
<path d="M59.8121 255.079C50.6009 243.527 64.5925 232.955 74.9057 233.388C99.1041 234.414 140.828 243.01 159.669 254.182C165.749 257.777 164.305 297.464 156.811 296.704C143.503 295.359 78.5005 278.525 59.8121 255.079Z" fill="#C95F50"/>
<path d="M143.815 253.726C146.855 252.92 164.836 244.127 170.742 243.481C176.647 242.835 197.197 248.163 201.689 250.595C206.18 253.027 218.409 267.315 219.42 271.768C220.18 275.34 213.096 278 204.98 271.647C197.38 265.711 195.86 263.918 193.268 262.77C190.676 261.622 180.128 262.686 178.516 266.494C177.566 268.774 180.036 275.257 184.049 276.99C188.062 278.722 192.614 276.594 198.489 277.446C204.364 278.297 208.954 282.659 208.194 284.757C206.933 288.23 204.326 286.923 196.034 288.876C190.714 290.138 183.821 293.512 173.994 296.332C163.567 299.334 148.002 294.91 148.002 294.91L143.815 253.726Z" fill="#C95F50"/>
<path d="M211.66 285.19C211.66 285.19 211.538 280.516 209.137 278.449C207.112 276.581 204.443 275.568 201.689 275.621C198.778 275.553 194.476 276.108 193.823 275.325C194.568 276.25 195.181 277.273 195.647 278.365C196.22 279.828 196.932 281.233 197.775 282.56C200.708 286.482 204.615 287.189 206.416 286.915C208.217 286.641 211.075 285.091 211.66 285.19Z" fill="#455A64"/>
<path d="M172.52 242.394C179.763 241.938 194.56 243.496 203.452 249.234C209.464 253.118 213.955 278.297 210.011 280.349C206.066 282.401 203.741 279.232 200.891 274.124C199.842 272.262 196.49 260.832 193.466 260.68C189.118 260.452 177.734 264.434 177.734 264.434L172.52 242.394Z" fill="#C95F50"/>
<path d="M211.022 278.92C213.15 273.851 211.5 267.33 209.448 261.143C209.448 261.045 209.266 261.083 209.296 261.181C209.813 262.762 212.017 273.683 210.923 278.912C210.908 278.92 211.006 278.92 211.022 278.92Z" fill="#263238"/>
<path d="M172.52 242.394C179.763 241.938 194.56 243.496 203.452 249.234C209.464 253.118 208.597 276.268 204.653 278.312C200.708 280.356 197.098 276.032 195.176 269.686C194.552 267.642 194.416 259.38 191.376 259.221C187.028 258.993 176.305 258.522 176.305 258.522L172.52 242.394Z" fill="#C95F50"/>
<path d="M197.258 274.634C195.989 272.528 195.586 269.511 195.32 267.102C195.092 264.997 195.054 262.61 193.937 260.741C193.475 259.898 192.752 259.229 191.877 258.833C190.916 258.533 189.911 258.402 188.906 258.446C187.758 258.408 186.626 258.446 185.463 258.446C184.3 258.446 183.943 258.514 182.757 258.575C182.278 258.575 182.347 258.924 182.871 258.909C184.78 258.864 186.688 258.999 188.571 259.312C189.579 259.366 190.573 259.571 191.52 259.92C191.972 260.154 192.372 260.476 192.698 260.868C193.023 261.26 193.266 261.713 193.412 262.2C194.119 264.206 194.089 266.433 194.613 268.493C195.138 270.552 195.768 273.106 197.144 274.74C197.19 274.824 197.311 274.717 197.258 274.634Z" fill="#263238"/>
<path d="M207.678 274.846C208.597 272.445 208.696 269.633 208.673 267.087C208.629 264.391 208.375 261.702 207.913 259.046C207.685 257.678 207.419 256.318 207.115 254.965C206.94 253.638 206.534 252.352 205.914 251.165C203.916 248.125 199.606 246.992 198.086 246.377C197.995 246.377 197.919 246.476 198.01 246.514C199.249 247.038 203.33 248.68 204.607 250.511C205.345 251.681 205.827 252.995 206.021 254.364C206.256 255.542 206.492 256.72 206.705 257.898C207.548 262.709 208.096 267.9 207.161 272.733C206.644 275.416 205.314 278.053 202.456 278.715C202.358 278.715 202.388 278.882 202.456 278.882C204.866 278.988 206.88 276.936 207.678 274.846Z" fill="#263238"/>
<path d="M164.852 244.956C167.968 244.044 178.448 237.705 182.727 236.93C187.006 236.155 203.551 235.342 206.484 239.362C210.17 244.408 197.547 247.198 191.953 247.92C186.36 248.642 180.948 254.334 180.948 254.334L164.852 244.956Z" fill="#C95F50"/>
<path d="M200.64 246.096C198.771 246.254 196.912 246.508 195.069 246.856C193.295 247.068 191.539 247.416 189.818 247.897C188.138 248.452 183.844 251.499 183.244 252.13C180.477 255.033 175.074 261.569 169.077 267.117C166.784 269.187 164.25 270.973 161.53 272.437C160.846 272.802 160.489 273.288 161.53 272.848C171.555 268.668 182.012 254.843 184.057 252.898C185.929 251.239 188.05 249.885 190.342 248.885C193.716 247.76 197.288 247.365 200.678 246.263C200.845 246.286 200.777 246.08 200.64 246.096Z" fill="#263238"/>
<path d="M141.049 242.812L131.853 268.234L128.949 292.683C128.949 292.683 53.2381 267.657 56.7493 246.43C57.9273 239.271 65.5121 230.173 81.6469 230.812C97.7817 231.45 141.049 242.812 141.049 242.812Z" fill="#EBEBEB"/>
<path d="M141.216 243.443C139.582 242.85 137.986 242.189 136.336 241.634C134.687 241.08 133.114 240.563 131.488 240.061C128.227 239.058 124.898 238.184 121.608 237.371C115.041 235.77 108.398 234.502 101.703 233.571C99.294 232.598 96.786 231.853 94.3388 230.994C94.2628 230.994 94.24 231.078 94.3388 231.108C96.3376 231.868 98.3212 232.674 100.335 233.388C98.8152 233.183 97.2344 232.978 95.6764 232.803C93.7916 232.59 91.8764 232.522 90.0144 232.347C89.946 232.347 89.9308 232.461 90.0144 232.469C91.6864 232.682 93.3508 233.008 95.0152 233.29C96.6796 233.571 98.42 233.822 100.115 234.11C103.489 234.688 106.848 235.311 110.2 236.003C116.865 237.386 123.523 238.906 130.089 240.738C131.921 241.247 133.768 241.718 135.607 242.258C137.446 242.797 139.354 243.23 141.208 243.778C141.36 243.838 141.413 243.519 141.216 243.443Z" fill="#263238"/>
<path d="M127.057 291.893C123.91 290.715 120.802 289.416 117.671 288.207C114.54 286.999 111.355 285.73 108.239 284.407C101.977 281.74 95.8208 278.836 89.6496 275.979C86.07 274.322 82.422 272.81 78.85 271.153C78.7588 271.153 78.6752 271.252 78.774 271.297C80.3396 272.057 81.89 272.931 83.4404 273.76C84.9908 274.588 86.526 275.325 88.0536 276.131C91.0936 277.742 94.2476 279.254 97.3636 280.774C103.477 283.769 109.74 286.448 116.128 288.8C119.7 290.107 123.333 291.164 126.996 292.174C127.156 292.182 127.201 291.946 127.057 291.893Z" fill="#263238"/>
<path d="M142.774 242.797C142.682 242.523 129.094 238.883 129.094 238.883C129.094 238.883 115.17 261.485 115.003 264.313C114.836 267.14 113.111 288.633 113.301 288.868C113.491 289.104 129.664 295.1 130.021 294.637C130.378 294.173 133.061 271.115 133.213 269.344C133.365 267.573 142.774 242.797 142.774 242.797Z" fill="#AEDC81"/>
<path d="M246.377 322.308C246.096 322.498 241.004 325.774 238.055 326.868C233.761 328.457 215.323 329.422 209.988 329.422C204.653 329.422 186.208 328.457 181.914 326.868C178.965 325.766 173.873 322.491 173.554 322.308C173.964 322.392 187.234 325.12 209.95 325.12C232.666 325.12 245.966 322.392 246.377 322.308Z" fill="#C7C7C7"/>
<path d="M209.988 326.754C242.606 326.754 269.048 321.021 269.048 313.948C269.048 306.876 242.606 301.142 209.988 301.142C177.37 301.142 150.928 306.876 150.928 313.948C150.928 321.021 177.37 326.754 209.988 326.754Z" fill="#DBDBDB"/>
<path d="M209.988 319.724C231.558 319.724 249.045 316.536 249.045 312.603C249.045 308.67 231.558 305.482 209.988 305.482C188.418 305.482 170.932 308.67 170.932 312.603C170.932 316.536 188.418 319.724 209.988 319.724Z" fill="#C7C7C7"/>
<path d="M209.988 318.159C226.236 318.159 239.408 315.893 239.408 313.097C239.408 310.302 226.236 308.036 209.988 308.036C193.74 308.036 180.568 310.302 180.568 313.097C180.568 315.893 193.74 318.159 209.988 318.159Z" fill="#AEDC81"/>
<path opacity="0.1" d="M209.988 318.159C226.236 318.159 239.408 315.893 239.408 313.097C239.408 310.302 226.236 308.036 209.988 308.036C193.74 308.036 180.568 310.302 180.568 313.097C180.568 315.893 193.74 318.159 209.988 318.159Z" fill="black"/>
<path d="M230.326 311.874C222.726 314.389 213.78 314.762 209.988 314.762C206.196 314.762 197.22 314.389 189.643 311.874L190.912 299.136H229.056L230.326 311.874Z" fill="#AEDC81"/>
<path d="M209.988 302.062C220.523 302.062 229.064 300.752 229.064 299.136C229.064 297.52 220.523 296.21 209.988 296.21C199.453 296.21 190.912 297.52 190.912 299.136C190.912 300.752 199.453 302.062 209.988 302.062Z" fill="#AEDC81"/>
<path opacity="0.1" d="M229.011 299.334H229.064C229.064 299.334 228.213 301.614 227.073 301.69C226.374 301.758 225.629 301.203 225.135 302.176C224.641 303.149 226.51 306.949 224.724 306.949C222.938 306.949 224.063 303.764 223.79 303.088C223.674 302.738 223.436 302.442 223.119 302.254C222.801 302.067 222.427 302.001 222.064 302.07C221.342 302.26 220.339 304.015 219.222 303.46C218.105 302.906 217.094 303.088 216.752 303.742C216.41 304.395 217.512 306.189 216.083 306.227C214.654 306.265 216.646 303.187 214.768 302.738C213.537 302.45 212.914 303.498 211.599 303.552C210.284 303.605 209.783 302.792 208.559 302.875C207.336 302.959 207.115 304.646 205.724 304.646C204.645 304.646 204.204 302.875 203.528 302.928C202.852 302.982 202.365 303.688 201.142 303.529C199.918 303.369 199.834 302.351 198.725 302.07C197.904 301.857 196.916 302.001 196.65 302.571C196.088 303.802 197.243 306.949 195.799 306.949C194.355 306.949 194.91 304.669 194.948 303.483C194.986 302.298 194.56 300.96 193.428 300.588L193.215 300.527C192.69 300.428 192.31 301.583 191.452 301.15C191.064 300.952 190.92 299.334 190.92 299.334H190.965C190.937 299.272 190.921 299.204 190.92 299.136C190.92 297.517 199.454 296.21 209.996 296.21C220.537 296.21 229.072 297.517 229.072 299.136C229.065 299.205 229.044 299.272 229.011 299.334Z" fill="black"/>
<path d="M191.573 298.984C194.606 299.579 197.668 300.013 200.746 300.284L203.026 300.474L205.306 300.626C206.826 300.679 208.392 300.74 209.935 300.717C211.478 300.694 213.013 300.679 214.556 300.641C216.098 300.603 217.634 300.458 219.169 300.299C219.929 300.215 220.689 300.17 221.449 300.063L223.729 299.744C225.249 299.569 226.769 299.212 228.289 298.984C227.529 299.189 226.769 299.387 226.009 299.577C225.249 299.767 224.489 299.972 223.729 300.109L221.449 300.542C220.689 300.679 219.929 300.762 219.169 300.876C216.087 301.282 212.982 301.482 209.874 301.477C206.764 301.465 203.657 301.262 200.572 300.869C199.052 300.656 197.494 300.413 195.974 300.109C194.454 299.805 193.04 299.44 191.573 298.984Z" fill="#AEDC81"/>
<path d="M216.174 287.835C216.174 287.835 214.434 289.134 214.32 290.039C214.221 290.799 213.119 290.138 213.142 289.195C213.153 288.963 213.223 288.738 213.347 288.542C214.176 288.408 214.942 288.017 215.536 287.424C215.598 287.427 215.66 287.44 215.718 287.462C215.817 287.488 215.908 287.535 215.987 287.599C216.066 287.663 216.13 287.744 216.174 287.835Z" fill="#455A64"/>
<path d="M216.174 287.835C216.174 287.835 214.434 289.134 214.32 290.039C214.221 290.799 213.119 290.138 213.142 289.195C213.333 289.217 213.527 289.196 213.708 289.133C213.89 289.07 214.055 288.966 214.191 288.83C214.67 288.466 215.711 288.162 215.711 287.462C215.811 287.487 215.904 287.533 215.984 287.597C216.064 287.662 216.129 287.743 216.174 287.835Z" fill="#37474F"/>
<path d="M213.005 289.621C212.779 289.378 212.597 289.097 212.466 288.792L212.428 288.716C212.138 288.16 212.017 287.532 212.078 286.908C212.26 286.391 213.598 285.844 213.894 285.851C214.191 285.859 213.758 286.566 213.514 287.371C213.271 288.177 213.157 288.785 213.514 289.188C214.221 290.069 216.06 289.674 216.554 289.818C216.968 289.922 217.353 290.12 217.679 290.396C217.697 290.421 217.71 290.45 217.717 290.479C217.725 290.639 215.711 292.258 213.005 289.621Z" fill="#455A64"/>
<path d="M213.005 289.621C212.779 289.378 212.597 289.098 212.466 288.792C212.858 289.184 213.313 289.507 213.811 289.75C214.581 290.163 215.457 290.335 216.326 290.244C216.775 290.159 217.239 290.204 217.664 290.373C217.682 290.399 217.694 290.427 217.702 290.457C217.725 290.639 215.711 292.258 213.005 289.621Z" fill="#37474F"/>
<path d="M217.854 292.19C217.622 292.365 217.357 292.489 217.074 292.554C216.791 292.62 216.497 292.625 216.212 292.57C215.664 292.443 215.148 292.203 214.699 291.864C214.25 291.525 213.877 291.094 213.606 290.601C213.302 290.046 211.615 288.884 210.893 287.994L210.855 287.949C210.708 287.786 210.608 287.586 210.566 287.371C210.49 286.512 211.387 285.334 211.675 285.456C211.82 285.524 211.812 285.851 211.797 286.262C211.767 286.67 211.805 287.081 211.911 287.478C212.397 288.511 213.127 289.411 214.039 290.1C215.605 291.43 217.839 291.954 217.892 292.098C217.9 292.121 217.892 292.152 217.854 292.19Z" fill="#455A64"/>
<path d="M217.854 292.19C217.622 292.365 217.357 292.489 217.074 292.554C216.791 292.62 216.497 292.625 216.212 292.57C215.664 292.443 215.148 292.203 214.699 291.864C214.25 291.525 213.877 291.094 213.606 290.601C213.302 290.046 211.614 288.884 210.892 287.994C211.972 288.975 213.279 289.666 214.366 290.639C214.86 291.182 215.453 291.625 216.114 291.946C216.665 292.17 217.263 292.253 217.854 292.19Z" fill="#37474F"/>
<path d="M211.394 298.482C209.568 298.82 207.7 298.859 205.861 298.596C205.476 298.543 205.097 298.454 204.729 298.33C204.577 298.285 204.435 298.21 204.311 298.11C203.786 297.623 203.452 296.415 203.779 293.709C204.106 291.004 206.165 288.139 208.476 287.835C209.198 287.765 209.927 287.866 210.603 288.13C211.279 288.394 211.883 288.813 212.367 289.355L212.564 289.575C212.678 289.656 212.801 289.725 212.929 289.78C213.864 290.229 216.22 291.3 216.304 293.58C216.41 296.339 214.32 297.92 211.394 298.482Z" fill="#C95F50"/>
<path d="M210.786 289.689C210.733 289.613 210.588 289.651 210.52 289.689C210.452 289.727 210.315 289.796 210.315 289.902C210.313 289.93 210.319 289.957 210.333 289.982C210.346 290.006 210.366 290.026 210.391 290.039C210.416 290.055 210.445 290.064 210.474 290.064C210.504 290.064 210.533 290.055 210.558 290.039C210.647 289.986 210.723 289.913 210.778 289.826C210.785 289.791 210.785 289.755 210.778 289.72L210.786 289.689Z" fill="#AEDC81"/>
<path d="M209.228 288.443C209.201 288.409 209.166 288.382 209.126 288.365C209.087 288.348 209.043 288.34 209 288.344C208.909 288.344 208.81 288.412 208.81 288.519C208.814 288.541 208.822 288.562 208.834 288.581C208.846 288.6 208.861 288.616 208.88 288.629C208.898 288.642 208.919 288.651 208.941 288.655C208.963 288.66 208.986 288.66 209.008 288.655C209.055 288.654 209.101 288.642 209.142 288.621C209.184 288.6 209.221 288.57 209.251 288.534C209.258 288.527 209.263 288.519 209.266 288.51C209.269 288.501 209.269 288.491 209.267 288.481C209.265 288.472 209.26 288.463 209.253 288.457C209.246 288.45 209.237 288.445 209.228 288.443Z" fill="#AEDC81"/>
<path d="M208.802 289.758C208.806 289.745 208.806 289.732 208.802 289.72C208.722 289.689 208.632 289.689 208.552 289.72C208.483 289.758 208.407 289.826 208.422 289.91C208.425 289.931 208.433 289.952 208.446 289.97C208.458 289.989 208.474 290.004 208.493 290.015C208.512 290.026 208.534 290.032 208.556 290.034C208.578 290.035 208.6 290.032 208.62 290.024C208.71 289.993 208.789 289.938 208.848 289.864C208.853 289.844 208.851 289.822 208.842 289.803C208.834 289.784 208.82 289.768 208.802 289.758Z" fill="#AEDC81"/>
<path d="M208.802 291.779C208.802 291.779 208.802 291.734 208.802 291.718C208.802 291.703 208.605 291.718 208.536 291.718C208.468 291.718 208.331 291.893 208.362 292C208.392 292.106 208.544 292.121 208.635 292.06C208.729 292.002 208.797 291.909 208.825 291.802C208.819 291.793 208.811 291.786 208.802 291.779Z" fill="#AEDC81"/>
<path d="M206.826 292.121C206.816 292.114 206.804 292.111 206.792 292.111C206.78 292.111 206.768 292.114 206.758 292.121C206.72 292.117 206.681 292.122 206.645 292.133C206.608 292.145 206.574 292.164 206.545 292.19C206.512 292.214 206.485 292.246 206.466 292.283C206.448 292.32 206.438 292.361 206.439 292.402C206.44 292.422 206.445 292.441 206.455 292.457C206.465 292.474 206.479 292.488 206.495 292.499C206.511 292.509 206.53 292.515 206.549 292.517C206.569 292.519 206.588 292.516 206.606 292.509C206.679 292.475 206.742 292.423 206.788 292.357C206.811 292.281 206.887 292.174 206.826 292.121Z" fill="#AEDC81"/>
<path d="M207.434 294.325C207.433 294.31 207.425 294.297 207.414 294.287C207.403 294.277 207.388 294.272 207.374 294.272C207.371 294.263 207.366 294.255 207.359 294.248C207.352 294.242 207.344 294.237 207.336 294.234C207.153 294.234 206.94 294.515 207.047 294.675C207.153 294.834 207.244 294.675 207.313 294.675C207.356 294.628 207.389 294.573 207.41 294.513C207.431 294.452 207.439 294.389 207.434 294.325Z" fill="#AEDC81"/>
<path d="M209.524 293.968C209.53 293.953 209.53 293.937 209.524 293.922C209.433 293.839 209.319 293.922 209.243 293.976C209.167 294.029 209.068 294.158 209.129 294.264C209.167 294.3 209.218 294.32 209.27 294.32C209.322 294.32 209.372 294.3 209.41 294.264C209.453 294.229 209.486 294.183 209.506 294.131C209.526 294.079 209.532 294.023 209.524 293.968Z" fill="#AEDC81"/>
<path d="M204.812 292.516C204.812 292.478 204.812 292.433 204.767 292.425C204.71 292.415 204.651 292.427 204.602 292.458C204.553 292.489 204.517 292.537 204.501 292.592C204.463 292.691 204.379 292.843 204.501 292.927C204.622 293.01 204.706 292.927 204.759 292.82C204.813 292.729 204.832 292.621 204.812 292.516Z" fill="#AEDC81"/>
<path d="M205.458 294.971C205.463 294.954 205.463 294.935 205.458 294.918C205.405 294.827 205.284 294.857 205.223 294.918C205.184 294.961 205.154 295.011 205.136 295.066C205.118 295.121 205.111 295.179 205.116 295.237C205.121 295.26 205.133 295.281 205.149 295.298C205.165 295.315 205.186 295.328 205.208 295.334C205.231 295.34 205.255 295.34 205.278 295.334C205.3 295.327 205.321 295.315 205.337 295.298C205.418 295.209 205.462 295.092 205.458 294.971Z" fill="#AEDC81"/>
<path d="M210.786 291.62C210.626 291.62 210.383 291.787 210.482 291.946C210.509 291.981 210.549 292.005 210.592 292.012C210.636 292.019 210.681 292.009 210.718 291.984C210.754 291.955 210.785 291.918 210.809 291.878C210.842 291.834 210.872 291.788 210.9 291.741C210.907 291.725 210.909 291.707 210.906 291.69C210.903 291.672 210.895 291.656 210.883 291.643C210.87 291.63 210.855 291.621 210.838 291.617C210.821 291.613 210.803 291.614 210.786 291.62Z" fill="#AEDC81"/>
<path d="M212.648 290.913C212.648 290.859 212.549 290.837 212.519 290.913C212.456 290.946 212.404 290.996 212.367 291.057C212.329 291.125 212.306 291.232 212.367 291.285C212.428 291.338 212.694 291.034 212.648 290.913Z" fill="#AEDC81"/>
<path d="M214.837 292.007C214.841 291.898 214.803 291.792 214.73 291.711C214.73 291.673 214.639 291.711 214.609 291.711C214.601 291.707 214.591 291.705 214.582 291.705C214.573 291.705 214.564 291.707 214.556 291.711C214.529 291.748 214.511 291.79 214.505 291.835C214.498 291.88 214.503 291.926 214.518 291.969C214.518 292.053 214.601 292.152 214.692 292.159C214.784 292.167 214.837 292.098 214.837 292.007Z" fill="#AEDC81"/>
<path d="M215.924 294.075C215.924 293.976 215.878 293.831 215.756 293.831C215.745 293.832 215.734 293.836 215.724 293.843C215.715 293.849 215.708 293.859 215.703 293.869C215.658 293.918 215.626 293.976 215.607 294.039C215.589 294.102 215.585 294.169 215.597 294.234C215.597 294.333 215.718 294.432 215.825 294.356C215.893 294.278 215.928 294.177 215.924 294.075Z" fill="#AEDC81"/>
<path d="M213.56 293.147C213.554 293.138 213.545 293.13 213.535 293.125C213.525 293.119 213.514 293.116 213.503 293.116C213.492 293.116 213.481 293.119 213.471 293.125C213.461 293.13 213.452 293.138 213.446 293.147C213.356 293.212 213.287 293.302 213.248 293.405C213.235 293.427 213.227 293.451 213.224 293.476C213.22 293.502 213.222 293.527 213.229 293.551C213.237 293.576 213.249 293.598 213.265 293.618C213.281 293.637 213.302 293.653 213.324 293.664C213.56 293.763 213.628 293.284 213.56 293.147Z" fill="#AEDC81"/>
<path d="M211.516 293.398C211.419 293.434 211.334 293.497 211.272 293.58C211.238 293.621 211.214 293.669 211.202 293.72C211.19 293.772 211.191 293.826 211.204 293.877C211.257 293.998 211.402 293.968 211.478 293.877C211.544 293.774 211.585 293.657 211.599 293.535C211.617 293.524 211.63 293.506 211.635 293.485C211.64 293.465 211.637 293.443 211.626 293.425C211.615 293.406 211.597 293.393 211.576 293.388C211.556 293.383 211.534 293.387 211.516 293.398Z" fill="#AEDC81"/>
<path d="M214.32 294.789C214.318 294.773 214.311 294.758 214.301 294.746C214.291 294.734 214.278 294.725 214.262 294.72C214.247 294.715 214.231 294.715 214.216 294.719C214.2 294.723 214.186 294.731 214.176 294.743C214.085 294.78 214.008 294.843 213.955 294.925C213.923 294.961 213.905 295.007 213.905 295.055C213.905 295.103 213.923 295.149 213.955 295.184C214.191 295.351 214.32 294.925 214.32 294.789Z" fill="#AEDC81"/>
<path d="M214.366 296.689C214.332 296.666 214.292 296.654 214.252 296.654C214.211 296.654 214.171 296.666 214.138 296.689C214.098 296.714 214.066 296.749 214.043 296.79C214.021 296.831 214.009 296.877 214.008 296.924C214.008 297.046 214.153 297.076 214.252 297.031C214.347 296.975 214.422 296.889 214.464 296.787C214.466 296.774 214.464 296.761 214.459 296.748C214.455 296.736 214.447 296.724 214.438 296.715C214.429 296.706 214.417 296.698 214.405 296.694C214.392 296.689 214.379 296.687 214.366 296.689Z" fill="#AEDC81"/>
<path d="M212.26 297.449C212.26 297.373 212.124 297.373 212.055 297.388C211.987 297.403 211.865 297.471 211.85 297.57C211.835 297.669 211.972 297.73 212.07 297.722C212.124 297.717 212.175 297.699 212.22 297.67C212.265 297.641 212.302 297.602 212.329 297.555C212.334 297.544 212.336 297.531 212.335 297.519C212.334 297.506 212.33 297.494 212.323 297.484C212.316 297.473 212.307 297.464 212.296 297.458C212.285 297.452 212.273 297.449 212.26 297.449Z" fill="#AEDC81"/>
<path d="M212.488 295.64C212.493 295.628 212.493 295.614 212.488 295.602C212.488 295.602 212.488 295.526 212.443 295.534C212.345 295.539 212.252 295.577 212.177 295.64C212.116 295.693 212.04 295.785 212.07 295.876C212.101 295.967 212.511 295.823 212.488 295.64Z" fill="#AEDC81"/>
<path d="M210.307 295.959C210.201 295.955 210.097 295.993 210.019 296.066C209.95 296.126 209.859 296.24 209.95 296.324C210.041 296.408 210.429 296.21 210.452 296.043C210.475 295.876 210.361 295.914 210.307 295.959Z" fill="#AEDC81"/>
<path d="M210.163 297.753V297.707C210.125 297.68 210.081 297.662 210.035 297.652C209.99 297.643 209.942 297.644 209.897 297.654C209.806 297.654 209.707 297.761 209.714 297.859C209.722 297.958 209.866 297.981 209.958 297.958C210.049 297.935 210.163 297.859 210.163 297.753Z" fill="#AEDC81"/>
<path d="M208.24 296.134C208.23 296.127 208.218 296.124 208.206 296.124C208.194 296.124 208.182 296.127 208.172 296.134C208.166 296.131 208.159 296.129 208.153 296.129C208.146 296.129 208.139 296.131 208.134 296.134C208.085 296.137 208.038 296.151 207.995 296.173C207.952 296.195 207.914 296.226 207.883 296.263C207.85 296.3 207.831 296.347 207.831 296.396C207.831 296.445 207.85 296.493 207.883 296.529C208.02 296.643 208.293 296.301 208.24 296.134Z" fill="#AEDC81"/>
<path d="M207.883 297.92C207.883 297.92 207.883 297.874 207.883 297.867C207.883 297.776 207.746 297.768 207.678 297.783C207.609 297.798 207.48 297.882 207.488 297.981C207.495 298.08 207.609 298.125 207.7 298.11C207.792 298.095 207.89 298.019 207.883 297.92Z" fill="#AEDC81"/>
<path d="M206.12 297.958C206.12 297.958 205.952 297.958 205.884 297.958C205.816 297.958 205.709 298.034 205.762 298.125C205.816 298.216 205.899 298.194 205.968 298.178C206.036 298.163 206.142 298.14 206.165 298.057C206.172 298.048 206.177 298.037 206.178 298.026C206.18 298.015 206.178 298.004 206.173 297.993C206.168 297.983 206.161 297.974 206.151 297.968C206.142 297.962 206.131 297.958 206.12 297.958Z" fill="#AEDC81"/>
<path d="M206.241 296.56C206.154 296.573 206.073 296.616 206.013 296.681C205.998 296.695 205.986 296.712 205.978 296.731C205.97 296.75 205.966 296.771 205.966 296.791C205.966 296.812 205.97 296.832 205.978 296.851C205.986 296.87 205.998 296.887 206.013 296.902C206.089 296.97 206.173 296.902 206.226 296.856C206.279 296.81 206.294 296.651 206.241 296.56Z" fill="#AEDC81"/>
<path d="M204.318 296.4C204.311 296.392 204.302 296.385 204.293 296.381C204.283 296.377 204.272 296.374 204.261 296.374C204.251 296.374 204.24 296.377 204.23 296.381C204.22 296.385 204.212 296.392 204.204 296.4C204.204 296.4 204.144 296.4 204.136 296.4C204.093 296.483 204.068 296.573 204.06 296.666C204.06 296.742 204.121 296.826 204.204 296.81C204.288 296.795 204.44 296.529 204.318 296.4Z" fill="#AEDC81"/>
<g opacity="0.2">
<path opacity="0.2" d="M209.646 294.295C209.532 294.371 209.441 294.47 209.327 294.53C209.262 294.561 209.193 294.582 209.122 294.591C209.061 294.591 209.015 294.591 208.962 294.591V294.629C209 294.774 209.243 294.728 209.35 294.69C209.515 294.63 209.655 294.515 209.745 294.363C209.76 294.318 209.684 294.264 209.646 294.295Z" fill="white"/>
<path opacity="0.2" d="M211.774 293.862C211.771 293.855 211.766 293.85 211.76 293.846C211.754 293.842 211.747 293.84 211.74 293.84C211.733 293.84 211.726 293.842 211.72 293.846C211.714 293.85 211.709 293.855 211.706 293.862C211.614 293.938 211.592 294.067 211.516 294.158C211.473 294.211 211.418 294.253 211.356 294.279C211.294 294.306 211.226 294.316 211.158 294.31C211.149 294.314 211.14 294.321 211.134 294.33C211.128 294.339 211.125 294.349 211.125 294.36C211.125 294.37 211.128 294.381 211.134 294.389C211.14 294.398 211.149 294.405 211.158 294.409C211.234 294.445 211.318 294.458 211.401 294.446C211.483 294.434 211.56 294.397 211.622 294.341C211.698 294.227 211.835 294.014 211.774 293.862Z" fill="white"/>
<path opacity="0.2" d="M211.88 293.581H211.82C211.82 293.581 211.82 293.694 211.873 293.664C211.882 293.652 211.887 293.638 211.889 293.623C211.89 293.608 211.887 293.594 211.88 293.581Z" fill="white"/>
<path opacity="0.2" d="M208.384 296.461C208.293 296.514 208.217 296.59 208.118 296.636C208.014 296.665 207.907 296.683 207.799 296.689C207.783 296.689 207.768 296.695 207.756 296.707C207.745 296.718 207.738 296.734 207.738 296.75C207.738 296.766 207.745 296.781 207.756 296.793C207.768 296.804 207.783 296.811 207.799 296.811C207.935 296.865 208.086 296.869 208.225 296.823C208.364 296.777 208.482 296.684 208.559 296.56C208.536 296.484 208.453 296.4 208.384 296.461Z" fill="white"/>
<path opacity="0.2" d="M207.016 292.479C207.016 292.469 207.013 292.459 207.008 292.451C207.003 292.443 206.996 292.436 206.988 292.43C206.98 292.425 206.971 292.422 206.961 292.421C206.951 292.42 206.942 292.422 206.933 292.425C206.857 292.471 206.811 292.555 206.743 292.608C206.707 292.647 206.661 292.676 206.611 292.692C206.56 292.708 206.506 292.71 206.454 292.699C206.443 292.69 206.429 292.686 206.414 292.687C206.4 292.688 206.387 292.696 206.378 292.707C206.369 292.718 206.365 292.732 206.366 292.746C206.367 292.76 206.374 292.774 206.386 292.783C206.53 293.033 207.047 292.714 207.016 292.479Z" fill="white"/>
<path opacity="0.2" d="M205.58 295.29C205.436 295.382 205.299 295.572 205.101 295.473C205.048 295.473 204.995 295.526 205.048 295.564C205.154 295.623 205.279 295.638 205.397 295.607C205.515 295.576 205.616 295.501 205.679 295.397C205.687 295.383 205.69 295.367 205.688 295.35C205.687 295.334 205.68 295.319 205.669 295.307C205.658 295.295 205.643 295.287 205.627 295.284C205.611 295.281 205.595 295.283 205.58 295.29Z" fill="white"/>
<path opacity="0.2" d="M207.298 294.933C207.268 294.926 207.236 294.926 207.206 294.933C207.206 294.933 207.146 294.933 207.115 294.933C207.109 294.936 207.103 294.941 207.1 294.947C207.096 294.953 207.094 294.96 207.094 294.968C207.094 294.975 207.096 294.982 207.1 294.988C207.103 294.994 207.109 294.999 207.115 295.002C207.132 295.021 207.154 295.035 207.178 295.043C207.202 295.051 207.227 295.052 207.252 295.047C207.277 295.05 207.302 295.044 207.323 295.03C207.344 295.016 207.359 294.995 207.366 294.971C207.366 294.963 207.363 294.956 207.359 294.949C207.355 294.942 207.349 294.937 207.343 294.933C207.336 294.929 207.328 294.927 207.32 294.927C207.312 294.927 207.304 294.929 207.298 294.933Z" fill="white"/>
<path opacity="0.2" d="M207.631 294.773C207.632 294.76 207.629 294.748 207.622 294.737C207.615 294.726 207.605 294.718 207.593 294.713C207.541 294.713 207.503 294.766 207.533 294.811C207.563 294.856 207.638 294.811 207.638 294.811L207.631 294.773Z" fill="white"/>
<path opacity="0.2" d="M209.046 291.962C208.954 292.023 208.916 292.137 208.856 292.22C208.812 292.279 208.752 292.324 208.683 292.348C208.614 292.373 208.539 292.376 208.468 292.357C208.43 292.357 208.4 292.395 208.468 292.418C208.532 292.443 208.601 292.453 208.67 292.447C208.739 292.44 208.805 292.417 208.863 292.38C209.007 292.302 209.117 292.175 209.175 292.023C209.152 291.969 209.084 291.924 209.046 291.962Z" fill="white"/>
<path opacity="0.2" d="M210.961 291.992C210.885 292.045 210.839 292.136 210.763 292.19C210.718 292.222 210.663 292.24 210.607 292.24C210.551 292.24 210.497 292.222 210.452 292.19C210.414 292.19 210.376 292.228 210.406 292.258C210.455 292.292 210.514 292.31 210.573 292.31C210.633 292.31 210.691 292.292 210.74 292.258C210.861 292.201 210.956 292.101 211.006 291.977C211.006 291.977 210.984 291.969 210.961 291.992Z" fill="white"/>
<path opacity="0.2" d="M212.724 291.361H212.663C212.602 291.399 212.564 291.453 212.496 291.475C212.429 291.495 212.358 291.495 212.291 291.475C212.291 291.475 212.238 291.513 212.291 291.529C212.33 291.56 212.376 291.58 212.425 291.588C212.475 291.596 212.525 291.591 212.572 291.574C212.625 291.536 212.732 291.46 212.724 291.361Z" fill="white"/>
<path opacity="0.2" d="M212.8 291.08C212.754 291.08 212.739 291.141 212.8 291.148C212.853 291.156 212.86 291.08 212.8 291.08Z" fill="white"/>
<path opacity="0.2" d="M210.74 290.122C210.646 290.176 210.535 290.192 210.429 290.168C210.423 290.172 210.417 290.178 210.414 290.184C210.41 290.191 210.408 290.199 210.408 290.206C210.408 290.214 210.41 290.221 210.414 290.228C210.417 290.234 210.423 290.24 210.429 290.244C210.493 290.287 210.57 290.306 210.646 290.297C210.723 290.289 210.794 290.254 210.847 290.198C210.862 290.153 210.794 290.092 210.74 290.122Z" fill="white"/>
<path opacity="0.2" d="M211.051 290.069C211.05 290.057 211.047 290.046 211.04 290.037C211.033 290.028 211.024 290.02 211.013 290.016C210.968 290.016 210.931 290.069 210.961 290.106C210.966 290.116 210.974 290.124 210.983 290.129C210.992 290.135 211.003 290.137 211.013 290.137C211.024 290.137 211.035 290.135 211.044 290.129C211.053 290.124 211.061 290.116 211.066 290.106L211.051 290.069Z" fill="white"/>
<path opacity="0.2" d="M213.621 293.687C213.579 293.752 213.522 293.807 213.454 293.845C213.387 293.883 213.311 293.905 213.233 293.907C213.225 293.911 213.218 293.917 213.213 293.924C213.208 293.932 213.206 293.94 213.206 293.949C213.206 293.958 213.208 293.967 213.213 293.974C213.218 293.982 213.225 293.987 213.233 293.991C213.281 294.006 213.332 294.01 213.382 294.003C213.432 293.996 213.479 293.978 213.521 293.95C213.564 293.923 213.599 293.886 213.625 293.843C213.652 293.8 213.668 293.752 213.674 293.702C213.674 293.702 213.636 293.664 213.621 293.687Z" fill="white"/>
<path opacity="0.2" d="M213.742 293.413C213.732 293.413 213.723 293.417 213.716 293.424C213.708 293.431 213.704 293.441 213.704 293.451C213.704 293.461 213.708 293.471 213.716 293.478C213.723 293.485 213.732 293.489 213.742 293.489C213.772 293.496 213.788 293.421 213.742 293.413Z" fill="white"/>
<path opacity="0.2" d="M212.504 295.944C212.437 296.017 212.351 296.07 212.255 296.097C212.16 296.124 212.059 296.124 211.964 296.096C211.918 296.096 211.88 296.149 211.964 296.172C212.075 296.23 212.204 296.244 212.325 296.212C212.446 296.179 212.55 296.103 212.618 295.997C212.618 295.944 212.542 295.906 212.504 295.944Z" fill="white"/>
<path opacity="0.2" d="M214.176 295.26C214.1 295.313 214.016 295.405 213.917 295.367C213.818 295.329 213.841 295.405 213.917 295.427C213.979 295.453 214.048 295.457 214.113 295.439C214.177 295.421 214.234 295.382 214.274 295.329C214.32 295.291 214.221 295.237 214.176 295.26Z" fill="white"/>
<path opacity="0.2" d="M210.292 296.4C210.224 296.432 210.152 296.458 210.079 296.476C209.996 296.49 209.911 296.477 209.836 296.438C209.798 296.438 209.768 296.476 209.798 296.507C209.828 296.537 210.254 296.666 210.353 296.469C210.356 296.46 210.356 296.45 210.354 296.441C210.352 296.432 210.348 296.424 210.342 296.417C210.336 296.41 210.328 296.405 210.319 296.402C210.31 296.399 210.301 296.398 210.292 296.4Z" fill="white"/>
<path opacity="0.2" d="M206.211 297.008C206.161 297.049 206.1 297.073 206.036 297.077C205.971 297.071 205.909 297.05 205.854 297.016C205.854 297.016 205.8 297.016 205.816 297.061C205.844 297.094 205.879 297.12 205.918 297.137C205.958 297.155 206 297.164 206.044 297.164C206.087 297.164 206.129 297.155 206.169 297.137C206.208 297.12 206.243 297.094 206.272 297.061C206.302 297.038 206.256 296.978 206.211 297.008Z" fill="white"/>
<path opacity="0.2" d="M206.089 298.247L205.914 298.331C205.851 298.338 205.788 298.338 205.724 298.331C205.724 298.331 205.679 298.376 205.724 298.391C205.797 298.413 205.875 298.413 205.948 298.391C206.02 298.369 206.085 298.327 206.135 298.27C206.135 298.27 206.12 298.232 206.089 298.247Z" fill="white"/>
<path opacity="0.2" d="M214.683 292.418C214.638 292.418 214.608 292.418 214.563 292.418C214.518 292.418 214.518 292.418 214.563 292.463C214.58 292.482 214.601 292.496 214.624 292.506C214.648 292.515 214.673 292.518 214.698 292.515C214.698 292.515 214.721 292.425 214.683 292.418Z" fill="white"/>
</g>
<path d="M338.816 288.367V320.834C338.816 323.16 337.949 325.052 336.893 325.052H324.398H311.889C310.832 325.052 309.974 323.182 309.974 320.857V288.367C309.974 286.041 310.832 284.172 311.889 284.172H313.044V281.132H324.398H335.738V284.172H336.893C337.949 284.172 338.816 286.041 338.816 288.367Z" fill="#AEDC81"/>
<path d="M336.528 276.131H312.231V281.595H336.528V276.131Z" fill="#37474F"/>
<path d="M338.808 295.252H309.974V315.765H338.808V295.252Z" fill="#EBEBEB"/>
<path d="M306.774 319.329C306.774 323.585 305.178 325.052 304.365 325.06H290.502C289.689 325.06 288.086 323.6 288.078 319.344C288.078 314.298 291.688 311.266 291.68 308.507C291.68 306.706 289.948 301.127 290.692 301.127H304.106C304.866 301.127 303.134 306.713 303.134 308.514C303.141 311.266 306.766 314.283 306.774 319.329Z" fill="#C7C7C7"/>
<path d="M291.708 297.398L303.024 297.383C303.457 297.382 303.873 297.554 304.18 297.86C304.487 298.166 304.66 298.581 304.66 299.014L304.665 302.335C304.665 302.366 304.653 302.395 304.632 302.416C304.61 302.438 304.581 302.45 304.551 302.45L290.202 302.47C290.172 302.47 290.143 302.458 290.122 302.436C290.1 302.415 290.088 302.386 290.088 302.356L290.084 299.035C290.083 298.603 290.254 298.188 290.558 297.881C290.862 297.575 291.276 297.401 291.708 297.398Z" fill="#37474F"/>
<path d="M134.3 321.792C134.154 322.958 133.768 324.082 133.166 325.092C132.565 326.102 131.76 326.976 130.804 327.659C126.715 330.896 119.89 332.272 112.997 331.254C108.33 330.57 102.471 327.948 96.8012 325.409C91.1316 322.871 85.6292 320.401 81.776 320.089L36.176 316.16L36.4192 313.363L37.4832 313.454L37.3312 315.18L81.8672 319.018C85.9028 319.367 91.4128 321.837 97.242 324.444C102.843 326.952 108.642 329.544 113.149 330.212C119.761 331.185 126.274 329.893 130.135 326.838C130.977 326.243 131.688 325.48 132.221 324.597C132.755 323.714 133.1 322.731 133.236 321.708L134.3 321.792Z" fill="#A6A6A6"/>
<path d="M134.064 319.276C134.289 320.094 134.369 320.946 134.3 321.792L133.236 321.693C133.277 320.663 133.104 319.635 132.729 318.675C132.353 317.715 131.783 316.843 131.054 316.114C127.771 312.443 121.585 310.034 114.904 309.882C110.344 309.768 104.188 311.334 98.2377 312.846C92.0513 314.42 86.1993 315.886 82.1637 315.559L37.6353 311.759L37.4833 313.477L36.4193 313.386L36.6549 310.597L82.2549 314.526C86.1081 314.86 91.8765 313.393 97.9793 311.843C104.082 310.293 110.215 308.735 114.935 308.856C121.896 309.031 128.379 311.554 131.86 315.438C132.877 316.533 133.631 317.845 134.064 319.276Z" fill="#A6A6A6"/>
<path d="M134.3 321.792C134.223 322.364 134.03 322.914 133.732 323.408C133.434 323.902 133.037 324.33 132.567 324.664C129.17 327.408 121.433 328.571 113.324 327.545C108.68 326.96 102.767 325.075 97.0519 323.243C91.3367 321.412 85.7279 319.626 81.8519 319.291L36.252 315.354L36.4268 313.348L37.4908 313.439L37.4072 314.382L81.9431 318.182C85.9483 318.531 91.5039 320.302 97.3863 322.187C103.056 323.996 108.916 325.873 113.468 326.45C121.182 327.423 128.759 326.329 131.898 323.79C132.256 323.545 132.561 323.23 132.792 322.862C133.024 322.495 133.177 322.084 133.243 321.655L134.3 321.792Z" fill="#A6A6A6"/>
<path d="M134.186 320.591C134.295 320.981 134.334 321.388 134.3 321.792L134.254 322.324L36.366 313.88L36.5864 311.334L82.1864 315.263C86.0776 315.605 91.7928 314.807 97.8424 313.971C103.892 313.135 109.942 312.299 114.623 312.52C122.786 312.9 130.203 315.362 133.084 318.653C133.593 319.207 133.97 319.87 134.186 320.591ZM133.213 321.153C133.076 320.482 132.752 319.863 132.278 319.367C129.618 316.327 122.337 313.956 114.57 313.599C110.01 313.378 103.892 314.222 97.9944 315.043C91.9144 315.886 86.1004 316.684 82.0952 316.342L37.5668 312.504V312.907L133.213 321.153Z" fill="#A6A6A6"/>
<path d="M33.9416 317.756L69.9352 320.857L70.7256 311.691L34.5268 308.568L33.9416 317.756Z" fill="#37474F"/>
<path d="M282.089 125.02C281.577 129.942 279.706 134.625 276.686 138.546C273.667 142.467 269.617 145.471 264.988 147.224C260.36 148.976 255.336 149.408 250.476 148.47C245.617 147.533 241.114 145.263 237.47 141.915L224.109 143.875L230.797 132.323C229.264 128.564 228.609 124.504 228.881 120.454C229.153 116.403 230.345 112.467 232.367 108.946C234.388 105.425 237.185 102.412 240.546 100.134C243.907 97.8566 247.743 96.3754 251.763 95.8031C255.782 95.2307 259.879 95.5823 263.742 96.8312C267.605 98.08 271.133 100.193 274.057 103.01C276.981 105.827 279.224 109.273 280.616 113.087C282.007 116.901 282.511 120.982 282.089 125.02Z" fill="white"/>
<path d="M282.089 125.02C281.574 129.942 279.71 134.626 276.701 138.556C275.233 140.541 273.466 142.286 271.464 143.731C269.495 145.223 267.325 146.43 265.02 147.318C262.714 148.22 260.294 148.798 257.83 149.036C256.597 149.142 255.358 149.165 254.121 149.104C252.882 149.074 251.646 148.945 250.428 148.717C245.501 147.815 240.924 145.557 237.211 142.196L237.53 142.295L224.2 144.339L223.235 144.491L223.721 143.64L230.371 132.065V132.521C228.804 128.693 228.137 124.556 228.421 120.428C228.706 116.301 229.935 112.295 232.013 108.718C234.093 105.157 236.95 102.112 240.373 99.8108C243.795 97.531 247.695 96.0672 251.773 95.532C255.824 94.9736 259.949 95.3535 263.829 96.6422C267.71 97.931 271.243 100.094 274.155 102.965C277.059 105.802 279.282 109.26 280.656 113.081C282.031 116.901 282.521 120.983 282.089 125.02ZM282.089 125.02C282.513 121 282.008 116.936 280.614 113.141C279.22 109.346 276.974 105.922 274.048 103.132C271.122 100.342 267.596 98.2612 263.739 97.0489C259.882 95.8367 255.799 95.5257 251.803 96.14C247.844 96.7339 244.072 98.2233 240.776 100.495C237.512 102.786 234.786 105.761 232.788 109.212C230.814 112.672 229.655 116.537 229.398 120.513C229.149 124.483 229.791 128.459 231.276 132.149L231.374 132.384L231.245 132.605L224.519 144.134L224.04 143.427L237.416 141.558H237.599L237.736 141.687C241.31 145.001 245.736 147.256 250.519 148.2C251.713 148.445 252.926 148.593 254.144 148.641C255.361 148.724 256.583 148.724 257.8 148.641C260.237 148.449 262.637 147.92 264.928 147.068C267.237 146.235 269.409 145.064 271.373 143.594C273.374 142.166 275.144 140.442 276.625 138.48C279.651 134.582 281.542 129.924 282.089 125.02Z" fill="#263238"/>
<path d="M266.851 127.277C263.854 131.289 260.028 134.61 255.634 137.013C251.241 134.608 247.416 131.288 244.416 127.277C240.472 122.048 240.662 113.871 246.316 112.077C252.563 110.116 255.634 119.525 255.634 119.525C255.634 119.525 258.75 110.056 264.959 112.077C270.56 113.932 270.803 122.048 266.851 127.277Z" fill="#AEDC81"/>
</svg>
