


<svg width="19" height="21" viewBox="0 0 19 21" fill="none" xmlns="http://www.w3.org/2000/svg">
<path d="M17.8599 2.62359H6.78618C6.48174 1.57414 5.62647 0.815918 4.62089 0.815918C3.61531 0.815918 2.76004 1.57414 2.45559 2.62359H0.727065C0.325531 2.62359 0 3.0014 0 3.46743C0 3.93345 0.325531 4.31127 0.727065 4.31127H2.45564C2.76008 5.36072 3.61536 6.11894 4.62093 6.11894C5.62651 6.11894 6.48178 5.36072 6.78623 4.31127H17.86C18.2615 4.31127 18.587 3.93345 18.587 3.46743C18.587 3.0014 18.2615 2.62359 17.8599 2.62359ZM4.62089 4.43126C4.16298 4.43126 3.79043 3.99888 3.79043 3.46743C3.79043 2.93598 4.16298 2.5036 4.62089 2.5036C5.07879 2.5036 5.45134 2.93598 5.45134 3.46743C5.45134 3.99888 5.07879 4.43126 4.62089 4.43126Z" fill="black"/>
<path d="M17.8599 9.85455H16.1313C15.8269 8.80509 14.9716 8.04688 13.966 8.04688C12.9605 8.04688 12.1052 8.80509 11.8008 9.85455H0.727065C0.325531 9.85455 0 10.2324 0 10.6984C0 11.1644 0.325531 11.5422 0.727065 11.5422H11.8008C12.1052 12.5917 12.9606 13.3499 13.9661 13.3499C14.9716 13.3499 15.8269 12.5917 16.1314 11.5422H17.86C18.2615 11.5422 18.587 11.1644 18.587 10.6984C18.587 10.2324 18.2615 9.85455 17.8599 9.85455ZM13.9661 11.6622C13.5082 11.6622 13.1356 11.2298 13.1356 10.6984C13.1356 10.1669 13.5082 9.73455 13.9661 9.73455C14.424 9.73455 14.7965 10.1669 14.7965 10.6984C14.7965 11.2298 14.424 11.6622 13.9661 11.6622Z" fill="black"/>
<path d="M17.8599 17.085H9.90127C9.59682 16.0356 8.74155 15.2773 7.73597 15.2773C6.73039 15.2773 5.87512 16.0356 5.57068 17.085H0.727065C0.325531 17.085 0 17.4628 0 17.9289C0 18.3949 0.325531 18.7727 0.727065 18.7727H5.57068C5.87512 19.8221 6.73039 20.5804 7.73597 20.5804C8.74155 20.5804 9.59682 19.8221 9.90127 18.7727H17.86C18.2615 18.7727 18.587 18.3949 18.587 17.9289C18.587 17.4628 18.2615 17.085 17.8599 17.085ZM7.73597 18.8927C7.27807 18.8927 6.90552 18.4604 6.90552 17.9289C6.90552 17.3975 7.27807 16.9651 7.73597 16.9651C8.19388 16.9651 8.56643 17.3974 8.56643 17.9289C8.56643 18.4603 8.19388 18.8927 7.73597 18.8927Z" fill="black"/>
</svg>
