<svg width="21" height="21" viewBox="0 0 21 21" fill="none" xmlns="http://www.w3.org/2000/svg">
<path d="M20.3148 10.7279H7.07588C6.69789 10.7279 6.39111 10.4212 6.39111 10.0432C6.39111 9.66517 6.69789 9.3584 7.07588 9.3584H20.3148C20.6928 9.3584 20.9996 9.66517 20.9996 10.0432C20.9996 10.4212 20.6928 10.7279 20.3148 10.7279Z" fill="#28B446"/>
<path d="M10.7281 14.3803C10.5527 14.3803 10.3775 14.3138 10.2441 14.1796L6.5921 10.5275C6.32461 10.2599 6.32461 9.8262 6.5921 9.55871L10.2441 5.90667C10.5116 5.63918 10.9453 5.63918 11.2129 5.90667C11.4804 6.17416 11.4804 6.60782 11.2129 6.87531L8.04472 10.0435L11.2129 13.2118C11.4804 13.4792 11.4804 13.9129 11.2129 14.1804C11.0787 14.3138 10.9033 14.3803 10.7281 14.3803Z" fill="#28B446"/>
<path d="M10.0433 20.0866C4.50583 20.0866 0 15.5808 0 10.0433C0 4.50583 4.50583 0 10.0433 0C14.1984 0 17.867 2.49984 19.3908 6.36938C19.5296 6.72079 19.3561 7.11801 19.0047 7.2576C18.6531 7.39469 18.2559 7.22383 18.1163 6.87058C16.8006 3.52883 13.6315 1.36954 10.0433 1.36954C5.26081 1.36954 1.36954 5.26098 1.36954 10.0433C1.36954 14.8257 5.26081 18.7171 10.0433 18.7171C13.6315 18.7171 16.8006 16.5578 18.1163 13.2171C18.255 12.8636 18.6522 12.693 19.0047 12.8299C19.3561 12.9686 19.5296 13.3667 19.3908 13.7183C17.867 17.5868 14.1984 20.0866 10.0433 20.0866Z" fill="#28B446"/>
</svg>
