<svg width="23" height="22" viewBox="0 0 23 22" fill="none" xmlns="http://www.w3.org/2000/svg">
<path d="M5.03411 18.8689L4.68238 16.3835C4.6323 16.0297 4.30459 15.7828 3.95118 15.8336C3.59738 15.8836 3.35119 16.211 3.40126 16.5648L3.48002 17.1214C2.80834 16.2924 2.27351 15.3525 1.90302 14.3394C-0.7196 7.16893 5.61409 -0.062791 12.9986 1.51244C13.3479 1.5868 13.6917 1.36415 13.7663 1.01471C13.8409 0.66526 13.618 0.321549 13.2686 0.246976C4.92999 -1.53209 -2.30268 6.60771 0.687849 14.7839C1.10682 15.9295 1.71135 16.993 2.4708 17.9314L1.84566 17.8113C1.49466 17.744 1.15565 17.9737 1.08823 18.3246C1.02082 18.6755 1.25062 19.0146 1.60149 19.082L4.21626 19.5843C4.68717 19.7172 5.09657 19.3094 5.03411 18.8689Z" fill="#28B446"/>
<path d="M21.3394 7.22224C20.9204 6.07664 20.3159 5.01311 19.5564 4.07476L20.1816 4.19483C20.5323 4.26212 20.8716 4.03245 20.939 3.68157C21.0065 3.33066 20.7767 2.99157 20.4258 2.92415L17.8105 2.42172C17.3456 2.29086 16.9298 2.68978 16.9932 3.13718L17.3449 5.62264C17.3906 5.94569 17.6675 6.17903 17.9847 6.17903C18.3801 6.17903 18.681 5.82954 18.626 5.44132L18.5473 4.88471C19.2189 5.71365 19.7538 6.6536 20.1243 7.66662C21.961 12.6885 19.3777 18.271 14.3656 20.111C12.651 20.7405 10.8055 20.8727 9.02869 20.4936C8.67937 20.4191 8.33553 20.6419 8.26096 20.9914C8.18639 21.3408 8.40925 21.6845 8.75869 21.7591C10.7745 22.1892 12.8675 22.0393 14.8115 21.3256C20.5064 19.2351 23.4259 12.927 21.3394 7.22224Z" fill="#28B446"/>
<path d="M17.7201 11.0372C17.7201 7.33294 14.7116 4.31934 11.0136 4.31934C7.31556 4.31934 4.30701 7.33294 4.30701 11.0372C4.30701 14.7414 7.31556 17.755 11.0136 17.755C14.7116 17.755 17.7201 14.7414 17.7201 11.0372ZM5.60094 11.0372C5.60094 8.04641 8.02904 5.61326 11.0136 5.61326C13.9981 5.61326 16.4262 8.04641 16.4262 11.0372C16.4262 14.0279 13.9981 16.461 11.0136 16.461C8.02904 16.461 5.60094 14.0279 5.60094 11.0372Z" fill="#28B446"/>
<path d="M11.6606 14.6712V14.1311C12.7817 14.1311 13.5617 13.2513 13.5617 12.2607C13.5617 11.2293 12.7236 10.3903 11.6935 10.3903H10.3337C10.017 10.3903 9.75943 10.1316 9.75943 9.81373C9.75943 9.50689 10.0009 9.23724 10.3427 9.23724H11.6447C11.8731 9.23952 12.0992 9.34248 12.2653 9.51996C12.5093 9.7809 12.9187 9.79453 13.1797 9.55046C13.4406 9.30638 13.4542 8.89698 13.2102 8.63604C12.8044 8.20223 12.24 7.9503 11.6606 7.94361V7.40331C11.6606 7.04601 11.3709 6.75635 11.0136 6.75635C10.6563 6.75635 10.3666 7.04601 10.3666 7.40331V7.94335C9.24552 7.94335 8.46545 8.82322 8.46545 9.81377C8.46545 10.8452 9.30353 11.6842 10.3336 11.6842H11.6935C12.0102 11.6842 12.2678 11.9428 12.2678 12.2608C12.2678 12.5808 12.0094 12.8373 11.6936 12.8373C11.6906 12.8373 11.6875 12.8372 11.6844 12.8372H10.2638C10.1026 12.8356 9.93117 12.7772 9.78082 12.6727C9.48736 12.4688 9.08421 12.5414 8.88033 12.8347C8.67641 13.1282 8.74895 13.5313 9.04237 13.7352C9.48533 14.0431 9.89762 14.1312 10.3666 14.1312V14.6713C10.3666 15.0286 10.6562 15.3182 11.0135 15.3182C11.3709 15.3181 11.6606 15.0285 11.6606 14.6712Z" fill="#28B446"/>
</svg>
