<svg width="22" height="18" viewBox="0 0 22 18" fill="none" xmlns="http://www.w3.org/2000/svg">
<path d="M11 18C10.6868 18 10.3848 17.8957 10.1495 17.7061C9.26077 16.9914 8.40392 16.3198 7.64793 15.7274L7.64407 15.7243C5.42766 13.9873 3.5137 12.4873 2.18201 11.0096C0.693375 9.35765 0 7.79138 0 6.08032C0 4.41788 0.619858 2.88418 1.74527 1.76153C2.88411 0.625613 4.44676 0 6.14587 0C7.4158 0 8.57881 0.369224 9.60251 1.09733C10.1191 1.46486 10.5874 1.91466 11 2.43932C11.4127 1.91466 11.8809 1.46486 12.3977 1.09733C13.4214 0.369224 14.5844 0 15.8543 0C17.5532 0 19.1161 0.625613 20.2549 1.76153C21.3803 2.88418 22 4.41788 22 6.08032C22 7.79138 21.3068 9.35765 19.8182 11.0094C18.4865 12.4873 16.5727 13.9872 14.3566 15.724C13.5993 16.3173 12.7411 16.99 11.8503 17.7064C11.6152 17.8957 11.313 18 11 18ZM6.14587 1.18516C4.81099 1.18516 3.5847 1.67509 2.6926 2.56481C1.78723 3.46796 1.28856 4.71641 1.28856 6.08032C1.28856 7.5194 1.87015 8.80643 3.17415 10.2534C4.43451 11.652 6.30919 13.1212 8.47978 14.8224L8.48381 14.8255C9.24265 15.4202 10.1029 16.0944 10.9982 16.8144C11.8988 16.0931 12.7604 15.4177 13.5207 14.8221C15.6911 13.1209 17.5657 11.652 18.826 10.2534C20.1299 8.80643 20.7114 7.5194 20.7114 6.08032C20.7114 4.71641 20.2128 3.46796 19.3074 2.56481C18.4155 1.67509 17.189 1.18516 15.8543 1.18516C14.8764 1.18516 13.9786 1.47103 13.1859 2.03475C12.4794 2.53734 11.9873 3.17268 11.6987 3.61723C11.5504 3.84583 11.2892 3.98228 11 3.98228C10.7108 3.98228 10.4496 3.84583 10.3013 3.61723C10.0129 3.17268 9.52077 2.53734 8.81413 2.03475C8.02139 1.47103 7.12358 1.18516 6.14587 1.18516Z" fill="#868889"/>
</svg>
